<svg width="262" height="262" viewBox="0 0 262 262" fill="none" xmlns="http://www.w3.org/2000/svg">
<path d="M131 46.1382C84.1322 46.1382 46.1382 84.1322 46.1382 131C46.1382 177.868 84.1322 215.862 131 215.862V262C58.6507 262 0 203.349 0 131C0 58.6507 58.6507 0 131 0V46.1382Z" fill="#212121"/>
<path d="M131 0C203.349 0 262 58.6507 262 131C262 203.349 203.349 262 131 262V215.862C177.868 215.862 215.862 177.868 215.862 131C215.862 84.1322 177.868 46.1382 131 46.1382V0Z" fill="#038C73"/>
<path d="M222.14 177.867C221.986 177.874 221.831 177.868 221.674 177.848C221.518 177.835 221.362 177.819 221.204 177.799C221.316 177.919 221.419 178.038 221.513 178.156C221.612 178.276 221.707 178.403 221.799 178.538L226.407 185.466C226.486 185.588 226.52 185.69 226.509 185.771C226.498 185.853 226.459 185.957 226.393 186.084L225.846 187.133L215.333 181.651L215.983 180.404L223.708 184.432C223.811 184.486 223.92 184.546 224.034 184.612C224.149 184.678 224.265 184.748 224.382 184.821L219.687 177.792C219.531 177.555 219.51 177.326 219.625 177.106L219.732 176.9C219.847 176.68 220.046 176.567 220.33 176.559L228.846 176.315C228.711 176.264 228.581 176.208 228.456 176.15C228.329 176.096 228.214 176.042 228.111 175.988L220.386 171.96L221.036 170.713L231.549 176.195L231.002 177.244C230.936 177.371 230.873 177.462 230.812 177.518C230.752 177.574 230.649 177.604 230.504 177.609L222.14 177.867Z" fill="white"/>
<path d="M229.88 160.89L225.202 159.278L225.722 157.768L236.932 161.63L235.84 164.798C235.596 165.508 235.312 166.095 234.988 166.561C234.669 167.029 234.317 167.383 233.93 167.623C233.542 167.869 233.128 168.006 232.686 168.035C232.25 168.065 231.794 167.999 231.32 167.835C230.923 167.699 230.575 167.508 230.273 167.265C229.972 167.021 229.725 166.732 229.531 166.396C229.341 166.068 229.209 165.699 229.134 165.288C229.058 164.883 229.045 164.447 229.095 163.98C228.921 164.13 228.704 164.242 228.445 164.316L222.868 166.052L223.331 164.707C223.427 164.43 223.604 164.264 223.862 164.207L228.87 162.677C229.026 162.631 229.148 162.566 229.236 162.479C229.329 162.395 229.412 162.248 229.484 162.039L229.88 160.89ZM230.983 161.27L230.436 162.858C230.283 163.301 230.201 163.707 230.19 164.077C230.183 164.454 230.237 164.787 230.353 165.078C230.472 165.376 230.648 165.629 230.879 165.837C231.111 166.045 231.391 166.206 231.719 166.319C232.387 166.549 232.967 166.501 233.458 166.174C233.948 165.853 234.343 165.257 234.643 164.386L235.215 162.728L230.983 161.27Z" fill="white"/>
<path d="M232.788 153.318C231.914 153.161 231.135 152.879 230.452 152.471C229.774 152.064 229.217 151.561 228.78 150.961C228.344 150.362 228.043 149.681 227.877 148.917C227.716 148.16 227.712 147.352 227.865 146.494C228.019 145.636 228.303 144.88 228.717 144.226C229.136 143.573 229.655 143.041 230.272 142.63C230.889 142.219 231.586 141.941 232.363 141.794C233.146 141.648 233.974 141.654 234.848 141.81C235.722 141.967 236.498 142.248 237.176 142.656C237.86 143.064 238.42 143.567 238.856 144.167C239.297 144.767 239.602 145.446 239.769 146.204C239.935 146.963 239.942 147.771 239.788 148.629C239.635 149.487 239.348 150.242 238.929 150.895C238.508 151.554 237.987 152.088 237.364 152.498C236.747 152.909 236.047 153.187 235.265 153.333C234.488 153.479 233.662 153.474 232.788 153.318ZM233.078 151.697C233.795 151.826 234.456 151.843 235.061 151.75C235.666 151.656 236.196 151.465 236.651 151.177C237.111 150.89 237.493 150.51 237.796 150.037C238.1 149.565 238.307 149.014 238.42 148.384C238.532 147.759 238.528 147.173 238.407 146.625C238.287 146.076 238.061 145.585 237.73 145.15C237.403 144.722 236.972 144.359 236.437 144.061C235.902 143.764 235.276 143.551 234.559 143.423C233.843 143.294 233.182 143.277 232.577 143.37C231.977 143.465 231.447 143.656 230.986 143.943C230.53 144.237 230.151 144.62 229.848 145.092C229.55 145.566 229.345 146.115 229.234 146.739C229.121 147.369 229.122 147.957 229.237 148.505C229.357 149.053 229.581 149.541 229.908 149.97C230.24 150.399 230.671 150.762 231.2 151.058C231.736 151.356 232.361 151.569 233.078 151.697Z" fill="white"/>
<path d="M241.12 136.449L239.814 136.41L239.986 130.72L235.842 130.595L235.695 135.458L234.389 135.418L234.536 130.555L229.442 130.401L229.49 128.789L241.341 129.147L241.12 136.449Z" fill="white"/>
<path d="M240.984 122.656L239.642 122.789L239.266 118.977L228.809 120.01L228.651 118.412L239.108 117.379L238.73 113.551L240.072 113.418L240.984 122.656Z" fill="white"/>
<path d="M227.732 112.161L227.447 110.953C227.414 110.814 227.422 110.693 227.471 110.59C227.521 110.488 227.594 110.402 227.691 110.334L230.222 108.597L228.998 103.419L225.957 102.999C225.852 102.984 225.751 102.94 225.654 102.867C225.557 102.793 225.493 102.689 225.461 102.555L225.176 101.347L237.805 103.233L238.18 104.82L227.732 112.161ZM230.228 103.588L231.247 107.895L235.513 104.974C235.774 104.787 236.11 104.586 236.518 104.371C236.284 104.364 236.066 104.353 235.864 104.338C235.669 104.328 235.495 104.312 235.343 104.291L230.228 103.588Z" fill="white"/>
<path d="M223.32 92.5985L225.135 97.3965L223.873 97.8735L221.491 91.5742L232.58 87.3801L233.148 88.8814L223.32 92.5985Z" fill="white"/>
<path d="M220.09 79.1295L216.177 81.2157L215.426 79.8066L225.888 74.2291L227.535 77.3174C227.888 77.9794 228.116 78.5952 228.22 79.165C228.331 79.737 228.331 80.2589 228.22 80.7307C228.109 81.2024 227.895 81.6225 227.579 81.9911C227.266 82.3645 226.863 82.6822 226.371 82.9443C225.885 83.2038 225.394 83.356 224.899 83.401C224.404 83.446 223.923 83.3809 223.454 83.2056C222.988 83.0352 222.543 82.7507 222.118 82.3522C221.698 81.9511 221.32 81.4366 220.986 80.8087L220.09 79.1295ZM221.215 78.5301L222.11 80.2093C222.325 80.6133 222.568 80.9401 222.839 81.1896C223.112 81.444 223.399 81.6253 223.701 81.7334C224.007 81.8389 224.323 81.8738 224.647 81.8382C224.972 81.8026 225.295 81.6991 225.616 81.5279C226.283 81.1724 226.694 80.6879 226.848 80.0744C227.005 79.4657 226.861 78.7452 226.418 77.9129L225.522 76.2337L221.215 78.5301Z" fill="white"/>
<path d="M32.5426 83.3835C32.5978 83.4627 32.6342 83.5364 32.6519 83.6048C32.6646 83.6709 32.6529 83.7443 32.6168 83.8248C32.5784 83.9104 32.4905 83.9918 32.3531 84.0693C32.2179 84.1416 32.0604 84.2433 31.8808 84.3744C31.6984 84.4981 31.5092 84.6642 31.313 84.8724C31.1192 85.0757 30.9444 85.3509 30.7887 85.6982C30.6421 86.0254 30.5577 86.3351 30.5354 86.6274C30.5082 86.9174 30.5317 87.1818 30.606 87.4206C30.6826 87.6544 30.8049 87.8604 30.9729 88.0384C31.1358 88.2142 31.3356 88.3552 31.5722 88.4612C31.8742 88.5966 32.1586 88.6364 32.4253 88.5807C32.6893 88.5176 32.9459 88.3969 33.1951 88.2185C33.4466 88.0351 33.694 87.8135 33.9373 87.5538C34.1779 87.2869 34.4257 87.0172 34.6808 86.7447C34.9382 86.4672 35.2062 86.2065 35.4847 85.9626C35.7605 85.7115 36.0582 85.5125 36.3779 85.3656C36.6999 85.2138 37.0471 85.1336 37.4195 85.1253C37.7942 85.1119 38.2056 85.2056 38.6536 85.4064C39.1267 85.6185 39.536 85.8987 39.8816 86.247C40.2221 86.5931 40.476 86.991 40.6431 87.4407C40.8125 87.8853 40.8838 88.3736 40.8569 88.9056C40.8323 89.4325 40.6913 89.9829 40.4342 90.5566C40.1206 91.2563 39.7082 91.8391 39.1971 92.3051C38.6832 92.7638 38.1184 93.1001 37.5028 93.3137L36.9977 92.5796C36.9604 92.5145 36.9366 92.4464 36.9261 92.3752C36.9129 92.2968 36.9222 92.2223 36.9537 92.1518C37.0011 92.0461 37.1132 91.9513 37.2898 91.8673C37.4615 91.781 37.6604 91.6677 37.8865 91.5273C38.1149 91.3818 38.3513 91.1916 38.5957 90.9566C38.8373 90.7143 39.0517 90.3843 39.2389 89.9665C39.3946 89.6192 39.4855 89.2882 39.5117 88.9736C39.5379 88.6589 39.5072 88.3701 39.4196 88.1072C39.3291 87.8369 39.1857 87.5973 38.9892 87.3884C38.7927 87.1794 38.546 87.0084 38.249 86.8753C37.9219 86.7286 37.6213 86.6846 37.3472 86.743C37.0704 86.7943 36.8074 86.9091 36.5581 87.0875C36.3089 87.2659 36.0665 87.4897 35.831 87.7589C35.5927 88.0208 35.3499 88.2928 35.1026 88.5749C34.8525 88.8496 34.5896 89.1126 34.3138 89.3637C34.0403 89.6098 33.7412 89.8052 33.4165 89.9497C33.0917 90.0943 32.7345 90.1699 32.3446 90.1765C31.952 90.1759 31.5167 90.0683 31.0385 89.854C30.656 89.6825 30.3188 89.4437 30.0268 89.1376C29.7371 88.8264 29.5171 88.4679 29.3666 88.0619C29.2161 87.656 29.1503 87.2094 29.1692 86.7222C29.1904 86.23 29.3216 85.7146 29.5631 85.176C29.8338 84.572 30.1765 84.0638 30.5911 83.6512C31.0057 83.2386 31.4777 82.9274 32.007 82.7173L32.5426 83.3835Z" fill="white"/>
<path d="M27.6734 95.5763C27.7367 95.6491 27.7808 95.7185 27.8057 95.7846C27.8254 95.849 27.8216 95.9232 27.7943 96.0071C27.7652 96.0963 27.6865 96.1867 27.5581 96.2783C27.4314 96.3647 27.2858 96.4826 27.1211 96.6321C26.953 96.7746 26.7825 96.9598 26.6097 97.1878C26.4386 97.4106 26.2942 97.703 26.1765 98.0649C26.0656 98.4058 26.0147 98.7228 26.0238 99.0157C26.0276 99.307 26.0792 99.5674 26.1786 99.7969C26.2796 100.021 26.4232 100.213 26.6092 100.372C26.79 100.529 27.0037 100.648 27.2502 100.728C27.5649 100.831 27.8519 100.84 28.1112 100.756C28.367 100.665 28.6092 100.518 28.838 100.314C29.0685 100.105 29.2908 99.8581 29.5051 99.574C29.7158 99.2829 29.9334 98.9883 30.158 98.6902C30.3843 98.3868 30.6229 98.099 30.8739 97.8268C31.1213 97.5476 31.3961 97.318 31.6983 97.1379C32.0022 96.9526 32.3389 96.8359 32.7084 96.7878C33.0795 96.7346 33.4985 96.7839 33.9653 96.9357C34.4584 97.0961 34.8953 97.331 35.276 97.6405C35.6515 97.9483 35.9464 98.3168 36.1605 98.7461C36.3764 99.1701 36.4994 99.6481 36.5294 100.18C36.5611 100.706 36.4797 101.269 36.2852 101.867C36.048 102.596 35.7002 103.219 35.2417 103.737C34.7797 104.248 34.254 104.643 33.6647 104.921L33.0842 104.245C33.0401 104.184 33.0091 104.119 32.9912 104.049C32.9697 103.972 32.9709 103.897 32.9948 103.824C33.0306 103.714 33.1319 103.608 33.2986 103.505C33.4601 103.401 33.6457 103.267 33.8556 103.103C34.0672 102.934 34.2819 102.72 34.4998 102.46C34.7142 102.194 34.8922 101.843 35.0338 101.407C35.1515 101.045 35.2067 100.707 35.1991 100.391C35.1916 100.075 35.1302 99.7914 35.015 99.5393C34.8963 99.2803 34.7281 99.0574 34.5105 98.8706C34.2928 98.6838 34.0292 98.54 33.7198 98.4393C33.3788 98.3284 33.0753 98.3167 32.809 98.4041C32.5392 98.4845 32.2899 98.6267 32.0612 98.8307C31.8324 99.0347 31.6153 99.2831 31.4098 99.5759C31.2009 99.8617 30.9885 100.158 30.7726 100.465C30.5533 100.765 30.3199 101.054 30.0725 101.333C29.8268 101.607 29.5502 101.833 29.2428 102.012C28.9353 102.19 28.5882 102.303 28.2013 102.352C27.8108 102.393 27.3665 102.332 26.8682 102.17C26.4696 102.041 26.1088 101.839 25.7858 101.566C25.4646 101.287 25.2075 100.954 25.0146 100.567C24.8217 100.179 24.7086 99.7422 24.6754 99.2558C24.644 98.7641 24.7195 98.2376 24.9021 97.6764C25.1069 97.047 25.3934 96.505 25.7616 96.0506C26.1298 95.5962 26.5659 95.2363 27.0699 94.971L27.6734 95.5763Z" fill="white"/>
<path d="M22.4369 107.706L23.7214 107.949L22.6625 113.542L26.5321 114.275L27.3893 109.747L28.6249 109.981L27.7677 114.509L31.7429 115.261L32.8018 109.669L34.0862 109.912L32.7273 117.09L21.078 114.884L22.4369 107.706Z" fill="white"/>
<path d="M29.7782 123.208C29.7825 123.119 29.8222 123.041 29.8973 122.973L30.6138 122.379C31.1521 122.891 31.5614 123.502 31.8415 124.211C32.122 124.915 32.2384 125.755 32.1909 126.73C32.1492 127.584 31.9655 128.351 31.6397 129.031C31.3083 129.71 30.8662 130.282 30.3134 130.747C29.7551 131.211 29.0975 131.56 28.3406 131.794C27.5837 132.027 26.759 132.123 25.8665 132.079C24.974 132.035 24.1628 131.852 23.4331 131.53C22.7036 131.201 22.0844 130.762 21.5755 130.213C21.0666 129.664 20.6839 129.018 20.4274 128.277C20.1656 127.529 20.0563 126.715 20.0992 125.834C20.1417 124.963 20.3132 124.22 20.6138 123.606C20.9146 122.985 21.3084 122.441 21.7951 121.973L22.5052 122.53C22.5584 122.571 22.6031 122.617 22.6392 122.669C22.6699 122.72 22.6829 122.793 22.6783 122.886C22.6748 122.958 22.6463 123.034 22.5927 123.114C22.5338 123.188 22.4631 123.279 22.3806 123.385C22.2981 123.492 22.2092 123.617 22.1138 123.762C22.0184 123.906 21.9271 124.078 21.8401 124.278C21.753 124.478 21.6781 124.712 21.6153 124.98C21.5471 125.247 21.5043 125.557 21.4872 125.91C21.4563 126.543 21.5381 127.13 21.7327 127.669C21.922 128.203 22.2085 128.67 22.5921 129.07C22.9758 129.47 23.4516 129.791 24.0196 130.034C24.5878 130.272 25.2301 130.408 25.9463 130.443C26.6845 130.479 27.348 130.406 27.9367 130.225C28.5256 130.038 29.03 129.773 29.4499 129.429C29.8646 129.079 30.1888 128.659 30.4226 128.168C30.6564 127.677 30.7874 127.142 30.8156 126.563C30.8328 126.211 30.829 125.893 30.8042 125.61C30.7738 125.327 30.7203 125.065 30.6437 124.824C30.5674 124.577 30.4681 124.348 30.3458 124.138C30.2183 123.922 30.066 123.705 29.8889 123.486C29.8108 123.389 29.7739 123.296 29.7782 123.208Z" fill="white"/>
<path d="M26.2913 137.765C27.1742 137.669 28.0009 137.721 28.7714 137.921C29.5365 138.121 30.2125 138.448 30.7995 138.9C31.3865 139.353 31.8669 139.922 32.2406 140.609C32.6083 141.29 32.8389 142.064 32.9325 142.931C33.026 143.797 32.966 144.603 32.7523 145.347C32.5332 146.092 32.1852 146.748 31.7083 147.315C31.2315 147.883 30.6407 148.346 29.9361 148.705C29.226 149.065 28.4295 149.292 27.5465 149.388C26.6636 149.483 25.8396 149.431 25.0746 149.23C24.3041 149.031 23.6253 148.704 23.0383 148.252C22.4458 147.8 21.963 147.233 21.5898 146.553C21.2167 145.872 20.9834 145.098 20.8898 144.231C20.7962 143.365 20.859 142.559 21.0781 141.814C21.2967 141.064 21.6471 140.405 22.1295 139.837C22.6063 139.269 23.1998 138.806 23.91 138.446C24.6146 138.087 25.4084 137.86 26.2913 137.765ZM26.4681 139.402C25.7442 139.48 25.105 139.649 24.5505 139.908C23.996 140.168 23.5409 140.5 23.1852 140.904C22.8239 141.31 22.5642 141.782 22.406 142.32C22.2478 142.859 22.203 143.446 22.2717 144.082C22.3399 144.713 22.5087 145.274 22.7782 145.767C23.0478 146.259 23.4025 146.667 23.8425 146.992C24.2765 147.311 24.792 147.538 25.3891 147.673C25.9863 147.809 26.6468 147.837 27.3706 147.759C28.0945 147.681 28.7337 147.512 29.2882 147.252C29.8372 146.993 30.2923 146.661 30.6536 146.256C31.0087 145.846 31.2654 145.372 31.4236 144.833C31.5763 144.295 31.6186 143.711 31.5505 143.08C31.4818 142.444 31.3154 141.879 31.0514 141.386C30.7818 140.894 30.4301 140.488 29.9961 140.169C29.5567 139.85 29.0412 139.623 28.4496 139.487C27.8524 139.352 27.1919 139.323 26.4681 139.402Z" fill="white"/>
<path d="M31.3912 160.788L36.1734 159.52L36.5828 161.063L25.1229 164.103L24.2638 160.864C24.0715 160.139 23.98 159.493 23.9893 158.926C23.9932 158.36 24.0885 157.869 24.2753 157.454C24.4606 157.034 24.7286 156.689 25.0793 156.419C25.4246 156.151 25.8399 155.952 26.3251 155.824C26.7302 155.716 27.1257 155.68 27.5116 155.714C27.8974 155.749 28.2641 155.851 28.6117 156.022C28.9526 156.188 29.2683 156.421 29.5589 156.721C29.8481 157.015 30.102 157.37 30.3207 157.785C30.3817 157.564 30.4991 157.35 30.6727 157.144L34.3365 152.594L34.7013 153.97C34.7763 154.253 34.7221 154.489 34.5389 154.681L31.2334 158.742C31.1295 158.866 31.065 158.989 31.04 159.11C31.0097 159.232 31.0228 159.4 31.0793 159.613L31.3912 160.788ZM30.2635 161.088L29.8329 159.464C29.7127 159.011 29.5541 158.628 29.3569 158.315C29.153 157.998 28.9221 157.751 28.664 157.574C28.3992 157.393 28.1126 157.281 27.8043 157.237C27.4959 157.194 27.1738 157.216 26.8379 157.305C26.1555 157.486 25.7011 157.85 25.4748 158.395C25.247 158.934 25.2512 159.649 25.4874 160.54L25.9371 162.235L30.2635 161.088Z" fill="white"/>
<path d="M36.8572 173.748L40.9464 172.032L41.5643 173.504L30.6319 178.092L29.2775 174.865C28.9873 174.174 28.8168 173.539 28.7661 172.962C28.7082 172.383 28.7563 171.863 28.9104 171.403C29.0645 170.944 29.3159 170.545 29.6647 170.207C30.0113 169.865 30.4415 169.585 30.9551 169.37C31.4638 169.156 31.9665 169.05 32.4633 169.051C32.9602 169.052 33.4338 169.161 33.8841 169.379C34.3322 169.592 34.7495 169.916 35.1359 170.352C35.5172 170.79 35.8455 171.337 36.1208 171.993L36.8572 173.748ZM35.6824 174.241L34.946 172.486C34.7688 172.064 34.557 171.716 34.3107 171.443C34.0622 171.164 33.7929 170.957 33.5027 170.822C33.2075 170.689 32.8965 170.625 32.5698 170.63C32.2431 170.636 31.912 170.709 31.5763 170.85C30.8795 171.142 30.426 171.587 30.2158 172.183C30.0035 172.775 30.0798 173.506 30.4448 174.375L31.1812 176.13L35.6824 174.241Z" fill="white"/>
<path d="M109.118 64.5405C109.349 64.1546 109.848 64.0287 110.234 64.2593L115.561 67.4448C115.946 67.6758 116.072 68.1761 115.841 68.562L112.656 73.8872C112.425 74.2731 111.925 74.3983 111.539 74.1675C111.153 73.9366 111.027 73.4372 111.258 73.0513L113.407 69.4536C86.6173 77.0967 67.0039 101.759 67.0039 131C67.0039 134.358 67.2626 137.655 67.7607 140.873C67.8296 141.317 67.5246 141.733 67.0801 141.802C66.6356 141.871 66.2192 141.566 66.1504 141.122C65.6396 137.822 65.375 134.442 65.375 131L65.3896 129.591C66.009 100.181 85.9769 75.5347 113.075 67.8569L109.398 65.6567C109.013 65.4257 108.887 64.9264 109.118 64.5405Z" fill="#EF3A5D" stroke="#EF3A5D" stroke-width="0.25"/>
<path d="M184.651 166.136L185.795 166.908L185.898 166.978L185.829 167.082L185.443 167.653C173.655 185.129 153.67 196.624 131 196.625C109.943 196.624 91.2042 186.705 79.1973 171.289L78.5449 175.522C78.4764 175.966 78.0608 176.271 77.6162 176.203C77.1717 176.134 76.867 175.718 76.9355 175.274L77.8818 169.141C77.9506 168.697 78.3662 168.392 78.8105 168.46L84.9434 169.407C85.3876 169.475 85.6924 169.891 85.624 170.335C85.5555 170.78 85.1389 171.085 84.6943 171.016L80.5518 170.377C92.2659 185.363 110.507 194.996 131 194.996C153.106 194.996 172.594 183.788 184.093 166.742L184.479 166.169L184.548 166.066L184.651 166.136Z" fill="#EF3A5D" stroke="#EF3A5D" stroke-width="0.25" stroke-linecap="square"/>
<path d="M142.957 67.3215C143.048 66.8811 143.479 66.5968 143.92 66.6877C177.093 73.5444 199.887 106.165 196.055 139.197L199.493 136.643C199.854 136.375 200.365 136.45 200.633 136.811C200.901 137.172 200.826 137.682 200.465 137.95L195.484 141.652C195.123 141.92 194.613 141.844 194.345 141.483L190.644 136.502C190.375 136.141 190.451 135.631 190.812 135.363C191.173 135.094 191.683 135.171 191.951 135.531L194.449 138.893C198.119 106.723 175.883 74.9582 143.591 68.2834C143.151 68.1925 142.866 67.7619 142.957 67.3215Z" fill="#EF3A5D" stroke="#EF3A5D" stroke-width="0.25"/>
<path d="M123.002 83.626C123.002 84.258 122.892 84.842 122.672 85.378C122.456 85.91 122.15 86.372 121.754 86.764C121.358 87.152 120.88 87.456 120.32 87.676C119.764 87.892 119.146 88 118.466 88H115.07V79.258H118.466C119.146 79.258 119.764 79.368 120.32 79.588C120.88 79.808 121.358 80.112 121.754 80.5C122.15 80.888 122.456 81.35 122.672 81.886C122.892 82.418 123.002 82.998 123.002 83.626ZM120.926 83.626C120.926 83.194 120.87 82.804 120.758 82.456C120.646 82.108 120.484 81.814 120.272 81.574C120.064 81.33 119.808 81.144 119.504 81.016C119.2 80.884 118.854 80.818 118.466 80.818H117.11V86.44H118.466C118.854 86.44 119.2 86.376 119.504 86.248C119.808 86.116 120.064 85.93 120.272 85.69C120.484 85.446 120.646 85.15 120.758 84.802C120.87 84.454 120.926 84.062 120.926 83.626ZM132.349 88H130.777C130.601 88 130.455 87.96 130.339 87.88C130.227 87.796 130.149 87.69 130.105 87.562L129.589 86.038H126.265L125.749 87.562C125.709 87.674 125.631 87.776 125.515 87.868C125.399 87.956 125.257 88 125.089 88H123.505L126.889 79.258H128.965L132.349 88ZM126.733 84.658H129.121L128.317 82.264C128.265 82.112 128.203 81.934 128.131 81.73C128.063 81.522 127.995 81.298 127.927 81.058C127.863 81.302 127.797 81.528 127.729 81.736C127.661 81.944 127.597 82.124 127.537 82.276L126.733 84.658ZM139.048 79.258V80.866H136.588V88H134.56V80.866H132.1V79.258H139.048ZM147.658 88H146.086C145.91 88 145.764 87.96 145.648 87.88C145.536 87.796 145.458 87.69 145.414 87.562L144.898 86.038H141.574L141.058 87.562C141.018 87.674 140.94 87.776 140.824 87.868C140.708 87.956 140.566 88 140.398 88H138.814L142.198 79.258H144.274L147.658 88ZM142.042 84.658H144.43L143.626 82.264C143.574 82.112 143.512 81.934 143.44 81.73C143.372 81.522 143.304 81.298 143.236 81.058C143.172 81.302 143.106 81.528 143.038 81.736C142.97 81.944 142.906 82.124 142.846 82.276L142.042 84.658Z" fill="#EF3A5D"/>
<path d="M149.111 157H147.071V148.258H149.111V157ZM152.402 148.258C152.49 148.258 152.564 148.262 152.624 148.27C152.684 148.278 152.738 148.294 152.786 148.318C152.834 148.338 152.88 148.368 152.924 148.408C152.968 148.448 153.018 148.502 153.074 148.57L157.226 153.82C157.21 153.652 157.198 153.49 157.19 153.334C157.182 153.174 157.178 153.024 157.178 152.884V148.258H158.966V157H157.91C157.754 157 157.622 156.976 157.514 156.928C157.406 156.88 157.302 156.792 157.202 156.664L153.08 151.456C153.092 151.608 153.102 151.758 153.11 151.906C153.118 152.05 153.122 152.186 153.122 152.314V157H151.334V148.258H152.402ZM165.877 150.034C165.817 150.13 165.753 150.202 165.685 150.25C165.621 150.298 165.537 150.322 165.433 150.322C165.341 150.322 165.241 150.294 165.133 150.238C165.029 150.178 164.909 150.112 164.773 150.04C164.641 149.968 164.489 149.904 164.317 149.848C164.145 149.788 163.949 149.758 163.729 149.758C163.349 149.758 163.065 149.84 162.877 150.004C162.693 150.164 162.601 150.382 162.601 150.658C162.601 150.834 162.657 150.98 162.769 151.096C162.881 151.212 163.027 151.312 163.207 151.396C163.391 151.48 163.599 151.558 163.831 151.63C164.067 151.698 164.307 151.776 164.551 151.864C164.795 151.948 165.033 152.048 165.265 152.164C165.501 152.28 165.709 152.428 165.889 152.608C166.073 152.788 166.221 153.008 166.333 153.268C166.445 153.524 166.501 153.834 166.501 154.198C166.501 154.602 166.431 154.98 166.291 155.332C166.151 155.684 165.947 155.992 165.679 156.256C165.415 156.516 165.087 156.722 164.695 156.874C164.307 157.022 163.865 157.096 163.369 157.096C163.097 157.096 162.819 157.068 162.535 157.012C162.255 156.956 161.983 156.878 161.719 156.778C161.455 156.674 161.207 156.552 160.975 156.412C160.743 156.272 160.541 156.116 160.369 155.944L160.969 154.996C161.013 154.924 161.075 154.866 161.155 154.822C161.235 154.778 161.321 154.756 161.413 154.756C161.533 154.756 161.653 154.794 161.773 154.87C161.897 154.946 162.035 155.03 162.187 155.122C162.343 155.214 162.521 155.298 162.721 155.374C162.921 155.45 163.157 155.488 163.429 155.488C163.797 155.488 164.083 155.408 164.287 155.248C164.491 155.084 164.593 154.826 164.593 154.474C164.593 154.27 164.537 154.104 164.425 153.976C164.313 153.848 164.165 153.742 163.981 153.658C163.801 153.574 163.595 153.5 163.363 153.436C163.131 153.372 162.893 153.302 162.649 153.226C162.405 153.146 162.167 153.05 161.935 152.938C161.703 152.822 161.495 152.672 161.311 152.488C161.131 152.3 160.985 152.068 160.873 151.792C160.761 151.512 160.705 151.168 160.705 150.76C160.705 150.432 160.771 150.112 160.903 149.8C161.035 149.488 161.229 149.21 161.485 148.966C161.741 148.722 162.055 148.528 162.427 148.384C162.799 148.236 163.225 148.162 163.705 148.162C163.973 148.162 164.233 148.184 164.485 148.228C164.741 148.268 164.983 148.33 165.211 148.414C165.439 148.494 165.651 148.592 165.847 148.708C166.047 148.82 166.225 148.948 166.381 149.092L165.877 150.034ZM170.329 157H168.289V148.258H170.329V157ZM176.668 155.536C176.948 155.536 177.196 155.512 177.412 155.464C177.628 155.416 177.832 155.352 178.024 155.272V153.946H177.16C177.032 153.946 176.932 153.912 176.86 153.844C176.788 153.776 176.752 153.69 176.752 153.586V152.47H179.86V156.16C179.636 156.324 179.402 156.466 179.158 156.586C178.918 156.702 178.66 156.798 178.384 156.874C178.112 156.95 177.82 157.006 177.508 157.042C177.2 157.078 176.868 157.096 176.512 157.096C175.872 157.096 175.28 156.984 174.736 156.76C174.192 156.532 173.72 156.22 173.32 155.824C172.924 155.424 172.612 154.952 172.384 154.408C172.16 153.86 172.048 153.266 172.048 152.626C172.048 151.974 172.156 151.376 172.372 150.832C172.588 150.284 172.896 149.812 173.296 149.416C173.7 149.02 174.186 148.712 174.754 148.492C175.326 148.272 175.964 148.162 176.668 148.162C177.032 148.162 177.374 148.192 177.694 148.252C178.014 148.312 178.308 148.394 178.576 148.498C178.848 148.602 179.096 148.726 179.32 148.87C179.544 149.014 179.744 149.17 179.92 149.338L179.332 150.232C179.276 150.316 179.208 150.382 179.128 150.43C179.052 150.478 178.968 150.502 178.876 150.502C178.756 150.502 178.632 150.462 178.504 150.382C178.344 150.286 178.192 150.204 178.048 150.136C177.908 150.064 177.764 150.006 177.616 149.962C177.468 149.918 177.312 149.886 177.148 149.866C176.984 149.846 176.8 149.836 176.596 149.836C176.216 149.836 175.874 149.904 175.57 150.04C175.266 150.172 175.006 150.36 174.79 150.604C174.578 150.848 174.414 151.142 174.298 151.486C174.182 151.826 174.124 152.206 174.124 152.626C174.124 153.09 174.188 153.502 174.316 153.862C174.444 154.222 174.62 154.526 174.844 154.774C175.072 155.022 175.34 155.212 175.648 155.344C175.96 155.472 176.3 155.536 176.668 155.536ZM189.327 157H187.287V153.304H183.735V157H181.695V148.258H183.735V151.912H187.287V148.258H189.327V157ZM197.714 148.258V149.866H195.254V157H193.226V149.866H190.766V148.258H197.714Z" fill="#EF3A5D"/>
<path d="M67.3228 157H65.7508C65.5748 157 65.4288 156.96 65.3128 156.88C65.2008 156.796 65.1228 156.69 65.0788 156.562L64.5628 155.038H61.2388L60.7228 156.562C60.6828 156.674 60.6048 156.776 60.4888 156.868C60.3728 156.956 60.2308 157 60.0628 157H58.4788L61.8628 148.258H63.9388L67.3228 157ZM61.7068 153.658H64.0948L63.2908 151.264C63.2388 151.112 63.1768 150.934 63.1048 150.73C63.0368 150.522 62.9688 150.298 62.9008 150.058C62.8368 150.302 62.7708 150.528 62.7028 150.736C62.6348 150.944 62.5708 151.124 62.5108 151.276L61.7068 153.658ZM74.1452 154.738C74.1932 154.738 74.2412 154.748 74.2892 154.768C74.3372 154.784 74.3832 154.814 74.4272 154.858L75.2312 155.704C74.8792 156.164 74.4372 156.512 73.9052 156.748C73.3772 156.98 72.7512 157.096 72.0272 157.096C71.3632 157.096 70.7672 156.984 70.2392 156.76C69.7152 156.532 69.2692 156.22 68.9012 155.824C68.5372 155.424 68.2572 154.952 68.0612 154.408C67.8652 153.86 67.7672 153.266 67.7672 152.626C67.7672 151.974 67.8792 151.376 68.1032 150.832C68.3272 150.284 68.6392 149.812 69.0392 149.416C69.4432 149.02 69.9252 148.712 70.4852 148.492C71.0452 148.272 71.6632 148.162 72.3392 148.162C72.6672 148.162 72.9752 148.192 73.2632 148.252C73.5552 148.308 73.8272 148.388 74.0792 148.492C74.3312 148.592 74.5632 148.714 74.7752 148.858C74.9872 148.998 75.1752 149.154 75.3392 149.326L74.6552 150.244C74.6112 150.3 74.5592 150.352 74.4992 150.4C74.4392 150.444 74.3552 150.466 74.2472 150.466C74.1752 150.466 74.1072 150.45 74.0432 150.418C73.9792 150.386 73.9112 150.348 73.8392 150.304C73.7672 150.256 73.6872 150.206 73.5992 150.154C73.5152 150.098 73.4132 150.048 73.2932 150.004C73.1772 149.956 73.0392 149.916 72.8792 149.884C72.7232 149.852 72.5392 149.836 72.3272 149.836C71.9592 149.836 71.6232 149.902 71.3192 150.034C71.0152 150.162 70.7532 150.348 70.5332 150.592C70.3172 150.832 70.1472 151.124 70.0232 151.468C69.9032 151.812 69.8432 152.198 69.8432 152.626C69.8432 153.074 69.9032 153.472 70.0232 153.82C70.1472 154.168 70.3132 154.462 70.5212 154.702C70.7332 154.938 70.9792 155.118 71.2592 155.242C71.5392 155.366 71.8392 155.428 72.1592 155.428C72.3432 155.428 72.5112 155.42 72.6632 155.404C72.8152 155.384 72.9552 155.352 73.0832 155.308C73.2152 155.264 73.3392 155.208 73.4552 155.14C73.5752 155.068 73.6952 154.98 73.8152 154.876C73.8632 154.836 73.9152 154.804 73.9712 154.78C74.0272 154.752 74.0852 154.738 74.1452 154.738ZM83.1059 148.258V149.866H80.6459V157H78.6179V149.866H76.1579V148.258H83.1059ZM86.7615 157H84.7215V148.258H86.7615V157ZM97.6132 152.626C97.6132 153.258 97.5032 153.846 97.2832 154.39C97.0672 154.934 96.7612 155.408 96.3652 155.812C95.9692 156.212 95.4912 156.526 94.9312 156.754C94.3752 156.982 93.7572 157.096 93.0772 157.096C92.3972 157.096 91.7772 156.982 91.2172 156.754C90.6572 156.526 90.1772 156.212 89.7772 155.812C89.3812 155.408 89.0732 154.934 88.8532 154.39C88.6372 153.846 88.5292 153.258 88.5292 152.626C88.5292 151.994 88.6372 151.406 88.8532 150.862C89.0732 150.318 89.3812 149.846 89.7772 149.446C90.1772 149.046 90.6572 148.732 91.2172 148.504C91.7772 148.276 92.3972 148.162 93.0772 148.162C93.7572 148.162 94.3752 148.278 94.9312 148.51C95.4912 148.738 95.9692 149.052 96.3652 149.452C96.7612 149.852 97.0672 150.324 97.2832 150.868C97.5032 151.412 97.6132 151.998 97.6132 152.626ZM95.5372 152.626C95.5372 152.194 95.4812 151.806 95.3692 151.462C95.2572 151.114 95.0952 150.82 94.8832 150.58C94.6752 150.34 94.4192 150.156 94.1152 150.028C93.8112 149.9 93.4652 149.836 93.0772 149.836C92.6852 149.836 92.3352 149.9 92.0272 150.028C91.7232 150.156 91.4652 150.34 91.2532 150.58C91.0452 150.82 90.8852 151.114 90.7732 151.462C90.6612 151.806 90.6052 152.194 90.6052 152.626C90.6052 153.062 90.6612 153.454 90.7732 153.802C90.8852 154.146 91.0452 154.438 91.2532 154.678C91.4652 154.918 91.7232 155.102 92.0272 155.23C92.3352 155.354 92.6852 155.416 93.0772 155.416C93.4652 155.416 93.8112 155.354 94.1152 155.23C94.4192 155.102 94.6752 154.918 94.8832 154.678C95.0952 154.438 95.2572 154.146 95.3692 153.802C95.4812 153.454 95.5372 153.062 95.5372 152.626ZM100.251 148.258C100.339 148.258 100.413 148.262 100.473 148.27C100.533 148.278 100.587 148.294 100.635 148.318C100.683 148.338 100.729 148.368 100.773 148.408C100.817 148.448 100.867 148.502 100.923 148.57L105.075 153.82C105.059 153.652 105.047 153.49 105.039 153.334C105.031 153.174 105.027 153.024 105.027 152.884V148.258H106.815V157H105.759C105.603 157 105.471 156.976 105.363 156.928C105.255 156.88 105.151 156.792 105.051 156.664L100.929 151.456C100.941 151.608 100.951 151.758 100.959 151.906C100.967 152.05 100.971 152.186 100.971 152.314V157H99.1829V148.258H100.251Z" fill="#EF3A5D"/>
</svg>
