<svg width="420" height="469" viewBox="0 0 420 469" fill="none" xmlns="http://www.w3.org/2000/svg">
<path d="M137.414 1.74806C137.358 1.83923 137.301 1.90661 137.242 1.95021C137.186 1.98985 137.113 2.00967 137.022 2.00967C136.934 2.00967 136.839 1.97994 136.736 1.92048C136.637 1.85706 136.52 1.78968 136.385 1.71833C136.251 1.64698 136.096 1.58158 135.922 1.52212C135.747 1.4587 135.543 1.42699 135.309 1.42699C134.897 1.42699 134.588 1.52014 134.382 1.70644C134.176 1.88877 134.072 2.12859 134.072 2.42588C134.072 2.61614 134.128 2.77469 134.239 2.90154C134.354 3.02442 134.503 3.13144 134.685 3.22261C134.871 3.31378 135.081 3.39504 135.315 3.46638C135.549 3.53773 135.789 3.61701 136.035 3.70422C136.28 3.78746 136.52 3.88655 136.754 4.0015C136.988 4.11646 137.196 4.26114 137.378 4.43555C137.565 4.60995 137.713 4.824 137.824 5.07769C137.939 5.32741 137.997 5.63263 137.997 5.99334C137.997 6.38576 137.927 6.7544 137.789 7.09925C137.654 7.44014 137.458 7.73941 137.2 7.99706C136.942 8.25075 136.623 8.45092 136.243 8.59758C135.866 8.74425 135.438 8.81758 134.958 8.81758C134.685 8.81758 134.411 8.78983 134.138 8.73434C133.868 8.67884 133.607 8.60155 133.353 8.50245C133.103 8.40336 132.867 8.28444 132.645 8.14571C132.424 8.00697 132.229 7.85238 132.063 7.68194L132.586 6.83764C132.63 6.77422 132.687 6.72269 132.758 6.68305C132.83 6.63944 132.905 6.61764 132.984 6.61764C133.091 6.61764 133.204 6.65728 133.323 6.73656C133.442 6.81584 133.579 6.90304 133.734 6.99817C133.888 7.09331 134.067 7.18051 134.269 7.25979C134.475 7.33906 134.721 7.3787 135.006 7.3787C135.422 7.3787 135.743 7.28357 135.969 7.09331C136.199 6.90304 136.314 6.61963 136.314 6.24306C136.314 6.02505 136.257 5.84866 136.142 5.71389C136.031 5.57912 135.884 5.46615 135.702 5.37498C135.519 5.28381 135.311 5.20651 135.077 5.14309C134.843 5.07571 134.604 5.00238 134.358 4.9231C134.112 4.84382 133.872 4.74869 133.638 4.6377C133.405 4.52671 133.196 4.38005 133.014 4.19771C132.832 4.01538 132.683 3.78944 132.568 3.5199C132.457 3.25036 132.402 2.91541 132.402 2.51506C132.402 2.19399 132.465 1.88283 132.592 1.58158C132.719 1.28032 132.905 1.01276 133.151 0.778896C133.397 0.545029 133.698 0.356747 134.055 0.214048C134.415 0.0713495 134.828 0 135.291 0C135.811 0 136.29 0.081259 136.73 0.243777C137.174 0.402331 137.549 0.624307 137.854 0.909704L137.414 1.74806Z" fill="#038C73"/>
<path d="M127.123 4.17996C127.412 4.17996 127.662 4.14428 127.872 4.07294C128.082 3.99762 128.255 3.89654 128.389 3.7697C128.524 3.63889 128.623 3.48629 128.687 3.31188C128.75 3.13747 128.782 2.9472 128.782 2.74108C128.782 2.33281 128.645 2.0157 128.372 1.78976C128.102 1.56382 127.69 1.45085 127.135 1.45085H126.207V4.17996H127.123ZM131.303 8.72253H129.692C129.39 8.72253 129.172 8.60758 129.038 8.37767L127.396 5.73181C127.329 5.62875 127.254 5.55343 127.171 5.50587C127.091 5.4583 126.972 5.43452 126.814 5.43452H126.207V8.72253H124.424V0.0952148H127.135C127.737 0.0952148 128.253 0.158637 128.681 0.28548C129.109 0.408359 129.46 0.580786 129.733 0.802762C130.007 1.02474 130.207 1.29031 130.334 1.59949C130.461 1.90471 130.524 2.24164 130.524 2.61028C130.524 2.89567 130.482 3.1672 130.399 3.42485C130.32 3.67853 130.203 3.91042 130.048 4.1205C129.894 4.33059 129.703 4.51689 129.477 4.6794C129.252 4.84192 128.994 4.97273 128.705 5.07183C128.819 5.13525 128.927 5.21254 129.026 5.30371C129.125 5.39091 129.214 5.49596 129.293 5.61884L131.303 8.72253Z" fill="#038C73"/>
<path d="M118.796 1.49247V3.71024H121.674V5.05993H118.796V7.32527H122.494V8.72253H117.001V0.0952148H122.494V1.49247H118.796Z" fill="#038C73"/>
<path d="M111.864 4.38806C112.423 4.38806 112.831 4.25329 113.089 3.98375C113.35 3.71421 113.481 3.34557 113.481 2.87784C113.481 2.66379 113.448 2.46956 113.38 2.29515C113.317 2.11678 113.218 1.96615 113.083 1.84327C112.952 1.71643 112.786 1.61931 112.583 1.55193C112.381 1.48454 112.141 1.45085 111.864 1.45085H110.734V4.38806H111.864ZM111.864 0.0952148C112.455 0.0952148 112.964 0.164582 113.392 0.303317C113.824 0.442052 114.179 0.63628 114.456 0.886002C114.734 1.13176 114.938 1.42509 115.069 1.76598C115.204 2.10687 115.271 2.47749 115.271 2.87784C115.271 3.30197 115.202 3.69042 115.063 4.04321C114.924 4.39599 114.714 4.69922 114.433 4.95291C114.151 5.2066 113.796 5.40479 113.368 5.54749C112.94 5.68622 112.439 5.75559 111.864 5.75559H110.734V8.72253H108.951V0.0952148H111.864Z" fill="#038C73"/>
<path d="M107.053 4.40582C107.053 5.03607 106.946 5.62074 106.732 6.15982C106.522 6.6989 106.223 7.16465 105.834 7.55708C105.45 7.9495 104.986 8.25868 104.443 8.48462C103.9 8.70659 103.298 8.81758 102.636 8.81758C101.974 8.81758 101.371 8.70659 100.828 8.48462C100.285 8.25868 99.8193 7.9495 99.4308 7.55708C99.0423 7.16465 98.7411 6.6989 98.527 6.15982C98.317 5.62074 98.2119 5.03607 98.2119 4.40582C98.2119 3.77556 98.317 3.19288 98.527 2.65776C98.7411 2.11868 99.0423 1.65292 99.4308 1.2605C99.8193 0.868083 100.285 0.560885 100.828 0.338909C101.371 0.11297 101.974 0 102.636 0C103.298 0 103.9 0.11297 104.443 0.338909C104.986 0.560885 105.45 0.870065 105.834 1.26645C106.223 1.65887 106.522 2.12462 106.732 2.66371C106.946 3.19883 107.053 3.77953 107.053 4.40582ZM105.228 4.40582C105.228 3.95394 105.168 3.54963 105.05 3.19288C104.931 2.83217 104.758 2.52695 104.532 2.27723C104.31 2.02354 104.039 1.8313 103.718 1.70049C103.401 1.56572 103.04 1.49834 102.636 1.49834C102.231 1.49834 101.869 1.56572 101.547 1.70049C101.226 1.8313 100.953 2.02354 100.727 2.27723C100.505 2.52695 100.335 2.83217 100.216 3.19288C100.097 3.54963 100.037 3.95394 100.037 4.40582C100.037 4.86166 100.097 5.26994 100.216 5.63065C100.335 5.98739 100.505 6.29063 100.727 6.54035C100.953 6.79007 101.226 6.98232 101.547 7.11709C101.869 7.24789 102.231 7.3133 102.636 7.3133C103.04 7.3133 103.401 7.24789 103.718 7.11709C104.039 6.98232 104.31 6.79007 104.532 6.54035C104.758 6.29063 104.931 5.98739 105.05 5.63065C105.168 5.26994 105.228 4.86166 105.228 4.40582Z" fill="#038C73"/>
<path d="M97.2963 7.27176V8.72253H92.177V0.0952148H93.9607V7.27176H97.2963Z" fill="#038C73"/>
<path d="M86.5496 1.49247V3.71024H89.4274V5.05993H86.5496V7.32527H90.2479V8.72253H84.754V0.0952148H90.2479V1.49247H86.5496Z" fill="#038C73"/>
<path d="M83.361 0.0952148L79.8886 8.72253H78.2714L74.7991 0.0952148H76.2379C76.3925 0.0952148 76.5174 0.132871 76.6125 0.208185C76.7116 0.279534 76.785 0.372684 76.8325 0.487636L78.6995 5.4583C78.7708 5.6446 78.8402 5.84874 78.9076 6.07071C78.9789 6.28873 79.0444 6.51863 79.1038 6.76042C79.1553 6.51863 79.2108 6.28873 79.2703 6.07071C79.3337 5.84874 79.4011 5.6446 79.4724 5.4583L81.3275 0.487636C81.3672 0.38854 81.4365 0.299353 81.5356 0.220076C81.6387 0.136835 81.7655 0.0952148 81.9162 0.0952148H83.361Z" fill="#038C73"/>
<path d="M70.1825 1.49247V3.71024H73.0603V5.05993H70.1825V7.32527H73.8808V8.72253H68.3869V0.0952148H73.8808V1.49247H70.1825Z" fill="#038C73"/>
<path d="M66.4814 4.4059C66.4814 5.03615 66.3743 5.61685 66.1603 6.14801C65.9502 6.6752 65.6509 7.12906 65.2625 7.50959C64.878 7.89012 64.4142 8.18741 63.8712 8.40146C63.3281 8.6155 62.7256 8.72253 62.0637 8.72253H58.7459V0.0952148H62.0637C62.7256 0.0952148 63.3281 0.202239 63.8712 0.416286C64.4142 0.630334 64.878 0.929605 65.2625 1.3141C65.6509 1.69463 65.9502 2.14849 66.1603 2.67568C66.3743 3.20287 66.4814 3.77961 66.4814 4.4059ZM64.6501 4.4059C64.6501 3.95402 64.5906 3.54773 64.4717 3.18702C64.3528 2.82631 64.1823 2.52109 63.9604 2.27137C63.7384 2.02164 63.4669 1.8294 63.1458 1.69463C62.8287 1.55986 62.468 1.49247 62.0637 1.49247H60.5415V7.32527H62.0637C62.468 7.32527 62.8287 7.25987 63.1458 7.12906C63.4669 6.99429 63.7384 6.80204 63.9604 6.55232C64.1823 6.29864 64.3528 5.99144 64.4717 5.63073C64.5906 5.27002 64.6501 4.86174 64.6501 4.4059Z" fill="#038C73"/>
<path d="M52.9281 0.0952148V8.72253H51.1325V5.00642H47.3332V8.72253H45.5375V0.0952148H47.3332V3.75781H51.1325V0.0952148H52.9281Z" fill="#038C73"/>
<path d="M42.9787 6.59981C43.0778 6.59981 43.161 6.63548 43.2284 6.70683L43.936 7.46194C43.5872 7.90589 43.1531 8.24282 42.6338 8.47272C42.1185 8.70263 41.5041 8.81758 40.7907 8.81758C40.1445 8.81758 39.5638 8.70857 39.0485 8.49056C38.5332 8.26859 38.0952 7.96139 37.7345 7.56897C37.3738 7.17655 37.0964 6.71079 36.9021 6.17171C36.7079 5.63263 36.6108 5.044 36.6108 4.40582C36.6108 3.97772 36.6564 3.57143 36.7475 3.18693C36.8427 2.79848 36.9794 2.44173 37.1578 2.11669C37.3362 1.79166 37.5502 1.49833 37.7999 1.23672C38.0536 0.975107 38.339 0.753132 38.6561 0.570795C38.9732 0.384494 39.3181 0.243777 39.6907 0.148645C40.0673 0.0495483 40.4676 0 40.8917 0C41.2088 0 41.5081 0.0277471 41.7895 0.0832412C42.0749 0.138735 42.3405 0.21603 42.5863 0.315127C42.832 0.414223 43.058 0.53512 43.2641 0.677819C43.4742 0.816553 43.6625 0.969161 43.8289 1.13564L43.2284 1.95616C43.1927 2.00769 43.1472 2.05327 43.0917 2.09291C43.0362 2.13255 42.9609 2.15237 42.8657 2.15237C42.7706 2.15237 42.6735 2.11868 42.5744 2.05129C42.4793 1.98391 42.3603 1.90859 42.2176 1.82535C42.0789 1.74211 41.9025 1.6668 41.6885 1.59941C41.4784 1.53203 41.2108 1.49834 40.8858 1.49834C40.5251 1.49834 40.1941 1.56374 39.8928 1.69455C39.5916 1.82535 39.332 2.01562 39.1139 2.26534C38.8999 2.5111 38.7334 2.81433 38.6145 3.17504C38.4956 3.53575 38.4361 3.94601 38.4361 4.40582C38.4361 4.86959 38.4996 5.28381 38.6264 5.64848C38.7572 6.00919 38.9336 6.31441 39.1556 6.56413C39.3815 6.81385 39.6431 7.00412 39.9404 7.13493C40.2417 7.26177 40.5627 7.32519 40.9036 7.32519C41.1058 7.32519 41.2881 7.31528 41.4506 7.29546C41.6171 7.27564 41.7697 7.24195 41.9085 7.19438C42.0512 7.14682 42.1839 7.08538 42.3068 7.01006C42.4337 6.93475 42.5605 6.83962 42.6874 6.72467C42.731 6.68899 42.7765 6.65926 42.8241 6.63548C42.8717 6.6117 42.9232 6.59981 42.9787 6.59981Z" fill="#038C73"/>
<path d="M31.6512 1.49247V3.71024H34.5289V5.05993H31.6512V7.32527H35.3494V8.72253H29.8555V0.0952148H35.3494V1.49247H31.6512Z" fill="#038C73"/>
<path d="M28.1906 1.53409H25.6696V8.72253H23.8799V1.53409H21.3589V0.0952148H28.1906V1.53409Z" fill="#038C73"/>
<path d="M297.156 22.9829C297.1 23.0741 297.043 23.1415 296.983 23.1851C296.928 23.2247 296.854 23.2445 296.763 23.2445C296.676 23.2445 296.581 23.2148 296.478 23.1553C296.379 23.0919 296.262 23.0245 296.127 22.9532C295.992 22.8818 295.838 22.8164 295.663 22.757C295.489 22.6936 295.285 22.6618 295.051 22.6618C294.638 22.6618 294.329 22.755 294.123 22.9413C293.917 23.1236 293.814 23.3634 293.814 23.6607C293.814 23.851 293.869 24.0096 293.98 24.1364C294.095 24.2593 294.244 24.3663 294.426 24.4575C294.613 24.5486 294.823 24.6299 295.057 24.7012C295.291 24.7726 295.53 24.8519 295.776 24.9391C296.022 25.0223 296.262 25.1214 296.496 25.2364C296.729 25.3513 296.938 25.496 297.12 25.6704C297.306 25.8448 297.455 26.0589 297.566 26.3126C297.681 26.5623 297.738 26.8675 297.738 27.2282C297.738 27.6206 297.669 27.9893 297.53 28.3341C297.395 28.675 297.199 28.9743 296.941 29.2319C296.684 29.4856 296.365 29.6858 295.984 29.8324C295.608 29.9791 295.18 30.0524 294.7 30.0524C294.426 30.0524 294.153 30.0247 293.879 29.9692C293.61 29.9137 293.348 29.8364 293.095 29.7373C292.845 29.6382 292.609 29.5193 292.387 29.3806C292.165 29.2418 291.971 29.0872 291.804 28.9168L292.328 28.0725C292.371 28.0091 292.429 27.9575 292.5 27.9179C292.571 27.8743 292.647 27.8525 292.726 27.8525C292.833 27.8525 292.946 27.8921 293.065 27.9714C293.184 28.0507 293.32 28.1379 293.475 28.233C293.63 28.3282 293.808 28.4154 294.01 28.4946C294.216 28.5739 294.462 28.6136 294.747 28.6136C295.164 28.6136 295.485 28.5184 295.711 28.3282C295.941 28.1379 296.056 27.8545 296.056 27.4779C296.056 27.2599 295.998 27.0835 295.883 26.9488C295.772 26.814 295.625 26.701 295.443 26.6098C295.261 26.5187 295.053 26.4414 294.819 26.378C294.585 26.3106 294.345 26.2372 294.099 26.158C293.854 26.0787 293.614 25.9836 293.38 25.8726C293.146 25.7616 292.938 25.6149 292.756 25.4326C292.573 25.2502 292.425 25.0243 292.31 24.7548C292.199 24.4852 292.143 24.1503 292.143 23.7499C292.143 23.4289 292.207 23.1177 292.333 22.8164C292.46 22.5152 292.647 22.2476 292.892 22.0138C293.138 21.7799 293.439 21.5916 293.796 21.4489C294.157 21.3062 294.569 21.2349 295.033 21.2349C295.552 21.2349 296.032 21.3161 296.472 21.4786C296.916 21.6372 297.29 21.8592 297.596 22.1446L297.156 22.9829Z" fill="#038C73"/>
<path d="M290.829 22.769H288.308V29.9574H286.518V22.769H283.997V21.3301H290.829V22.769Z" fill="#038C73"/>
<path d="M282.252 22.9829C282.196 23.0741 282.139 23.1415 282.079 23.1851C282.024 23.2247 281.95 23.2445 281.859 23.2445C281.772 23.2445 281.677 23.2148 281.574 23.1553C281.475 23.0919 281.358 23.0245 281.223 22.9532C281.088 22.8818 280.934 22.8164 280.759 22.757C280.585 22.6936 280.381 22.6618 280.147 22.6618C279.735 22.6618 279.425 22.755 279.219 22.9413C279.013 23.1236 278.91 23.3634 278.91 23.6607C278.91 23.851 278.966 24.0096 279.077 24.1364C279.191 24.2593 279.34 24.3663 279.522 24.4575C279.709 24.5486 279.919 24.6299 280.153 24.7012C280.387 24.7726 280.626 24.8519 280.872 24.9391C281.118 25.0223 281.358 25.1214 281.592 25.2364C281.825 25.3513 282.034 25.496 282.216 25.6704C282.402 25.8448 282.551 26.0589 282.662 26.3126C282.777 26.5623 282.834 26.8675 282.834 27.2282C282.834 27.6206 282.765 27.9893 282.626 28.3341C282.491 28.675 282.295 28.9743 282.038 29.2319C281.78 29.4856 281.461 29.6858 281.08 29.8324C280.704 29.9791 280.276 30.0524 279.796 30.0524C279.522 30.0524 279.249 30.0247 278.975 29.9692C278.706 29.9137 278.444 29.8364 278.191 29.7373C277.941 29.6382 277.705 29.5193 277.483 29.3806C277.261 29.2418 277.067 29.0872 276.9 28.9168L277.424 28.0725C277.467 28.0091 277.525 27.9575 277.596 27.9179C277.667 27.8743 277.743 27.8525 277.822 27.8525C277.929 27.8525 278.042 27.8921 278.161 27.9714C278.28 28.0507 278.417 28.1379 278.571 28.233C278.726 28.3282 278.904 28.4154 279.106 28.4946C279.312 28.5739 279.558 28.6136 279.844 28.6136C280.26 28.6136 280.581 28.5184 280.807 28.3282C281.037 28.1379 281.152 27.8545 281.152 27.4779C281.152 27.2599 281.094 27.0835 280.979 26.9488C280.868 26.814 280.722 26.701 280.539 26.6098C280.357 26.5187 280.149 26.4414 279.915 26.378C279.681 26.3106 279.441 26.2372 279.195 26.158C278.95 26.0787 278.71 25.9836 278.476 25.8726C278.242 25.7616 278.034 25.6149 277.852 25.4326C277.669 25.2502 277.521 25.0243 277.406 24.7548C277.295 24.4852 277.239 24.1503 277.239 23.7499C277.239 23.4289 277.303 23.1177 277.43 22.8164C277.556 22.5152 277.743 22.2476 277.988 22.0138C278.234 21.7799 278.535 21.5916 278.892 21.4489C279.253 21.3062 279.665 21.2349 280.129 21.2349C280.648 21.2349 281.128 21.3161 281.568 21.4786C282.012 21.6372 282.386 21.8592 282.692 22.1446L282.252 22.9829Z" fill="#038C73"/>
<path d="M273.382 26.6397V29.9574H271.598V26.6397L268.465 21.3301H270.035C270.189 21.3301 270.312 21.3677 270.403 21.443C270.498 21.5144 270.574 21.6075 270.629 21.7225L272.044 24.4397C272.139 24.6221 272.225 24.7925 272.3 24.9511C272.379 25.1096 272.449 25.2682 272.508 25.4267C272.564 25.2682 272.627 25.1096 272.698 24.9511C272.774 24.7885 272.857 24.6181 272.948 24.4397L274.351 21.7225C274.399 21.6274 274.47 21.5382 274.565 21.4549C274.66 21.3717 274.783 21.3301 274.934 21.3301H276.516L273.382 26.6397Z" fill="#038C73"/>
<path d="M268.932 28.5066V29.9574H263.812V21.3301H265.596V28.5066H268.932Z" fill="#038C73"/>
<path d="M259.423 26.6813L258.489 24.0413C258.434 23.9026 258.374 23.7401 258.311 23.5538C258.251 23.3675 258.194 23.1653 258.138 22.9473C258.083 23.1693 258.023 23.3754 257.96 23.5657C257.9 23.752 257.843 23.9145 257.787 24.0532L256.86 26.6813H259.423ZM262.419 29.9574H261.034C260.879 29.9574 260.752 29.9217 260.653 29.8504C260.558 29.7751 260.487 29.6799 260.439 29.565L259.857 27.918H256.42L255.837 29.565C255.798 29.6641 255.728 29.7552 255.629 29.8385C255.53 29.9178 255.405 29.9574 255.255 29.9574H253.857L257.229 21.3301H259.054L262.419 29.9574Z" fill="#038C73"/>
<path d="M252.467 21.3301V29.9574H251.545C251.406 29.9574 251.29 29.9356 251.194 29.892C251.099 29.8444 251.006 29.7651 250.915 29.6542L246.616 24.184C246.628 24.3228 246.636 24.4595 246.64 24.5943C246.648 24.7291 246.652 24.8539 246.652 24.9689V29.9574H245.076V21.3301H246.016C246.091 21.3301 246.154 21.334 246.206 21.342C246.261 21.3459 246.311 21.3598 246.355 21.3836C246.398 21.4034 246.44 21.4312 246.479 21.4668C246.519 21.5025 246.563 21.5501 246.61 21.6095L250.939 27.1034C250.923 26.9528 250.911 26.8081 250.903 26.6694C250.895 26.5267 250.891 26.3919 250.891 26.2651V21.3301H252.467Z" fill="#038C73"/>
<path d="M240.686 26.6813L239.753 24.0413C239.697 23.9026 239.638 23.7401 239.575 23.5538C239.515 23.3675 239.458 23.1653 239.402 22.9473C239.347 23.1693 239.287 23.3754 239.224 23.5657C239.164 23.752 239.107 23.9145 239.051 24.0532L238.124 26.6813H240.686ZM243.683 29.9574H242.298C242.143 29.9574 242.016 29.9217 241.917 29.8504C241.822 29.7751 241.751 29.6799 241.703 29.565L241.12 27.918H237.684L237.101 29.565C237.062 29.6641 236.992 29.7552 236.893 29.8385C236.794 29.9178 236.669 29.9574 236.518 29.9574H235.121L238.492 21.3301H240.318L243.683 29.9574Z" fill="#038C73"/>
<path d="M419.143 138.501C419.088 138.592 419.03 138.66 418.971 138.703C418.915 138.743 418.842 138.763 418.751 138.763C418.663 138.763 418.568 138.733 418.465 138.673C418.366 138.61 418.249 138.543 418.114 138.471C417.98 138.4 417.825 138.335 417.651 138.275C417.476 138.212 417.272 138.18 417.038 138.18C416.626 138.18 416.317 138.273 416.111 138.459C415.905 138.642 415.802 138.882 415.802 139.179C415.802 139.369 415.857 139.528 415.968 139.654C416.083 139.777 416.232 139.884 416.414 139.976C416.6 140.067 416.81 140.148 417.044 140.219C417.278 140.291 417.518 140.37 417.764 140.457C418.009 140.54 418.249 140.639 418.483 140.754C418.717 140.869 418.925 141.014 419.107 141.188C419.294 141.363 419.442 141.577 419.553 141.831C419.668 142.08 419.726 142.386 419.726 142.746C419.726 143.139 419.656 143.507 419.518 143.852C419.383 144.193 419.187 144.492 418.929 144.75C418.671 145.004 418.352 145.204 417.972 145.351C417.595 145.497 417.167 145.571 416.687 145.571C416.414 145.571 416.14 145.543 415.867 145.487C415.597 145.432 415.336 145.354 415.082 145.255C414.832 145.156 414.597 145.037 414.375 144.899C414.153 144.76 413.958 144.605 413.792 144.435L414.315 143.591C414.359 143.527 414.416 143.476 414.488 143.436C414.559 143.392 414.634 143.371 414.713 143.371C414.82 143.371 414.933 143.41 415.052 143.489C415.171 143.569 415.308 143.656 415.463 143.751C415.617 143.846 415.796 143.933 415.998 144.013C416.204 144.092 416.45 144.132 416.735 144.132C417.151 144.132 417.472 144.036 417.698 143.846C417.928 143.656 418.043 143.373 418.043 142.996C418.043 142.778 417.986 142.602 417.871 142.467C417.76 142.332 417.613 142.219 417.431 142.128C417.248 142.037 417.04 141.959 416.806 141.896C416.573 141.829 416.333 141.755 416.087 141.676C415.841 141.597 415.601 141.502 415.368 141.391C415.134 141.28 414.926 141.133 414.743 140.951C414.561 140.768 414.412 140.542 414.297 140.273C414.186 140.003 414.131 139.668 414.131 139.268C414.131 138.947 414.194 138.636 414.321 138.335C414.448 138.033 414.634 137.766 414.88 137.532C415.126 137.298 415.427 137.11 415.784 136.967C416.144 136.824 416.557 136.753 417.02 136.753C417.54 136.753 418.019 136.834 418.459 136.997C418.903 137.155 419.278 137.377 419.583 137.663L419.143 138.501Z" fill="#038C73"/>
<path d="M412.816 138.287H410.295V145.475H408.506V138.287H405.985V136.848H412.816V138.287Z" fill="#038C73"/>
<path d="M404.239 138.501C404.184 138.592 404.126 138.66 404.067 138.703C404.011 138.743 403.938 138.763 403.847 138.763C403.76 138.763 403.664 138.733 403.561 138.673C403.462 138.61 403.345 138.543 403.211 138.471C403.076 138.4 402.921 138.335 402.747 138.275C402.572 138.212 402.368 138.18 402.134 138.18C401.722 138.18 401.413 138.273 401.207 138.459C401.001 138.642 400.898 138.882 400.898 139.179C400.898 139.369 400.953 139.528 401.064 139.654C401.179 139.777 401.328 139.884 401.51 139.976C401.696 140.067 401.906 140.148 402.14 140.219C402.374 140.291 402.614 140.37 402.86 140.457C403.105 140.54 403.345 140.639 403.579 140.754C403.813 140.869 404.021 141.014 404.203 141.188C404.39 141.363 404.538 141.577 404.649 141.831C404.764 142.08 404.822 142.386 404.822 142.746C404.822 143.139 404.752 143.507 404.614 143.852C404.479 144.193 404.283 144.492 404.025 144.75C403.767 145.004 403.448 145.204 403.068 145.351C402.691 145.497 402.263 145.571 401.784 145.571C401.51 145.571 401.237 145.543 400.963 145.487C400.693 145.432 400.432 145.354 400.178 145.255C399.928 145.156 399.693 145.037 399.471 144.899C399.249 144.76 399.054 144.605 398.888 144.435L399.411 143.591C399.455 143.527 399.512 143.476 399.584 143.436C399.655 143.392 399.73 143.371 399.81 143.371C399.917 143.371 400.03 143.41 400.148 143.489C400.267 143.569 400.404 143.656 400.559 143.751C400.713 143.846 400.892 143.933 401.094 144.013C401.3 144.092 401.546 144.132 401.831 144.132C402.247 144.132 402.568 144.036 402.794 143.846C403.024 143.656 403.139 143.373 403.139 142.996C403.139 142.778 403.082 142.602 402.967 142.467C402.856 142.332 402.709 142.219 402.527 142.128C402.344 142.037 402.136 141.959 401.902 141.896C401.669 141.829 401.429 141.755 401.183 141.676C400.937 141.597 400.697 141.502 400.464 141.391C400.23 141.28 400.022 141.133 399.839 140.951C399.657 140.768 399.508 140.542 399.393 140.273C399.282 140.003 399.227 139.668 399.227 139.268C399.227 138.947 399.29 138.636 399.417 138.335C399.544 138.033 399.73 137.766 399.976 137.532C400.222 137.298 400.523 137.11 400.88 136.967C401.24 136.824 401.653 136.753 402.116 136.753C402.636 136.753 403.115 136.834 403.555 136.997C403.999 137.155 404.374 137.377 404.679 137.663L404.239 138.501Z" fill="#038C73"/>
<path d="M397.167 145.475H395.371V136.848H397.167V145.475Z" fill="#038C73"/>
<path d="M393.706 138.287H391.185V145.475H389.395V138.287H386.874V136.848H393.706V138.287Z" fill="#038C73"/>
<path d="M385.198 136.848V145.475H384.277C384.138 145.475 384.021 145.453 383.926 145.41C383.831 145.362 383.738 145.283 383.647 145.172L379.348 139.702C379.36 139.84 379.368 139.977 379.372 140.112C379.38 140.247 379.383 140.372 379.383 140.486V145.475H377.808V136.848H378.747C378.823 136.848 378.886 136.852 378.938 136.86C378.993 136.864 379.043 136.877 379.086 136.901C379.13 136.921 379.171 136.949 379.211 136.984C379.251 137.02 379.294 137.068 379.342 137.127L383.67 142.621C383.655 142.47 383.643 142.326 383.635 142.187C383.627 142.044 383.623 141.909 383.623 141.783V136.848H385.198Z" fill="#038C73"/>
<path d="M372.181 138.245V140.463H375.058V141.812H372.181V144.078H375.879V145.475H370.385V136.848H375.879V138.245H372.181Z" fill="#038C73"/>
<path d="M367.986 145.475H366.19V136.848H367.986V145.475Z" fill="#038C73"/>
<path d="M363.632 143.353C363.731 143.353 363.814 143.388 363.881 143.46L364.589 144.215C364.24 144.659 363.806 144.996 363.287 145.226C362.771 145.456 362.157 145.571 361.444 145.571C360.797 145.571 360.217 145.462 359.701 145.243C359.186 145.022 358.748 144.714 358.387 144.322C358.027 143.929 357.749 143.464 357.555 142.925C357.361 142.386 357.264 141.797 357.264 141.159C357.264 140.731 357.309 140.324 357.4 139.94C357.496 139.551 357.632 139.195 357.811 138.87C357.989 138.545 358.203 138.251 358.453 137.99C358.707 137.728 358.992 137.506 359.309 137.324C359.626 137.137 359.971 136.997 360.344 136.902C360.72 136.802 361.12 136.753 361.545 136.753C361.862 136.753 362.161 136.781 362.442 136.836C362.728 136.892 362.993 136.969 363.239 137.068C363.485 137.167 363.711 137.288 363.917 137.431C364.127 137.569 364.315 137.722 364.482 137.889L363.881 138.709C363.846 138.761 363.8 138.806 363.745 138.846C363.689 138.885 363.614 138.905 363.519 138.905C363.423 138.905 363.326 138.872 363.227 138.804C363.132 138.737 363.013 138.662 362.871 138.578C362.732 138.495 362.555 138.42 362.341 138.352C362.131 138.285 361.864 138.251 361.539 138.251C361.178 138.251 360.847 138.317 360.546 138.447C360.244 138.578 359.985 138.769 359.767 139.018C359.553 139.264 359.386 139.567 359.267 139.928C359.148 140.289 359.089 140.699 359.089 141.159C359.089 141.623 359.152 142.037 359.279 142.401C359.41 142.762 359.586 143.067 359.808 143.317C360.034 143.567 360.296 143.757 360.593 143.888C360.895 144.015 361.216 144.078 361.557 144.078C361.759 144.078 361.941 144.068 362.104 144.048C362.27 144.029 362.423 143.995 362.561 143.947C362.704 143.9 362.837 143.838 362.96 143.763C363.087 143.688 363.213 143.593 363.34 143.478C363.384 143.442 363.429 143.412 363.477 143.388C363.525 143.365 363.576 143.353 363.632 143.353Z" fill="#038C73"/>
<path d="M355.286 138.501C355.231 138.592 355.173 138.66 355.114 138.703C355.058 138.743 354.985 138.763 354.894 138.763C354.807 138.763 354.712 138.733 354.609 138.673C354.509 138.61 354.393 138.543 354.258 138.471C354.123 138.4 353.968 138.335 353.794 138.275C353.62 138.212 353.415 138.18 353.182 138.18C352.769 138.18 352.46 138.273 352.254 138.459C352.048 138.642 351.945 138.882 351.945 139.179C351.945 139.369 352 139.528 352.111 139.654C352.226 139.777 352.375 139.884 352.557 139.976C352.744 140.067 352.954 140.148 353.188 140.219C353.421 140.291 353.661 140.37 353.907 140.457C354.153 140.54 354.393 140.639 354.626 140.754C354.86 140.869 355.068 141.014 355.251 141.188C355.437 141.363 355.586 141.577 355.697 141.831C355.812 142.08 355.869 142.386 355.869 142.746C355.869 143.139 355.8 143.507 355.661 143.852C355.526 144.193 355.33 144.492 355.072 144.75C354.815 145.004 354.496 145.204 354.115 145.351C353.738 145.497 353.31 145.571 352.831 145.571C352.557 145.571 352.284 145.543 352.01 145.487C351.741 145.432 351.479 145.354 351.225 145.255C350.976 145.156 350.74 145.037 350.518 144.899C350.296 144.76 350.102 144.605 349.935 144.435L350.458 143.591C350.502 143.527 350.559 143.476 350.631 143.436C350.702 143.392 350.778 143.371 350.857 143.371C350.964 143.371 351.077 143.41 351.196 143.489C351.315 143.569 351.451 143.656 351.606 143.751C351.761 143.846 351.939 143.933 352.141 144.013C352.347 144.092 352.593 144.132 352.878 144.132C353.295 144.132 353.616 144.036 353.842 143.846C354.071 143.656 354.186 143.373 354.186 142.996C354.186 142.778 354.129 142.602 354.014 142.467C353.903 142.332 353.756 142.219 353.574 142.128C353.392 142.037 353.184 141.959 352.95 141.896C352.716 141.829 352.476 141.755 352.23 141.676C351.984 141.597 351.745 141.502 351.511 141.391C351.277 141.28 351.069 141.133 350.887 140.951C350.704 140.768 350.556 140.542 350.441 140.273C350.33 140.003 350.274 139.668 350.274 139.268C350.274 138.947 350.338 138.636 350.464 138.335C350.591 138.033 350.777 137.766 351.023 137.532C351.269 137.298 351.57 137.11 351.927 136.967C352.288 136.824 352.7 136.753 353.164 136.753C353.683 136.753 354.163 136.834 354.603 136.997C355.047 137.155 355.421 137.377 355.726 137.663L355.286 138.501Z" fill="#038C73"/>
<path d="M343.213 142.199L342.28 139.559C342.224 139.42 342.165 139.258 342.101 139.071C342.042 138.885 341.984 138.683 341.929 138.465C341.873 138.687 341.814 138.893 341.751 139.083C341.691 139.27 341.634 139.432 341.578 139.571L340.651 142.199H343.213ZM346.21 145.475H344.824C344.67 145.475 344.543 145.439 344.444 145.368C344.349 145.293 344.277 145.198 344.23 145.083L343.647 143.436H340.211L339.628 145.083C339.588 145.182 339.519 145.273 339.42 145.356C339.321 145.435 339.196 145.475 339.045 145.475H337.648L341.019 136.848H342.845L346.21 145.475Z" fill="#038C73"/>
<path d="M337.841 138.287H335.32V145.475H333.531V138.287H331.01V136.848H337.841V138.287Z" fill="#038C73"/>
<path d="M328.193 142.199L327.26 139.559C327.204 139.42 327.145 139.258 327.081 139.071C327.022 138.885 326.964 138.683 326.909 138.465C326.853 138.687 326.794 138.893 326.731 139.083C326.671 139.27 326.614 139.432 326.558 139.571L325.631 142.199H328.193ZM331.19 145.475H329.804C329.65 145.475 329.523 145.439 329.424 145.368C329.329 145.293 329.257 145.198 329.21 145.083L328.627 143.436H325.191L324.608 145.083C324.568 145.182 324.499 145.273 324.4 145.356C324.301 145.435 324.176 145.475 324.025 145.475H322.628L325.999 136.848H327.825L331.19 145.475Z" fill="#038C73"/>
<path d="M322.012 141.158C322.012 141.789 321.905 142.369 321.691 142.9C321.481 143.428 321.181 143.882 320.793 144.262C320.408 144.643 319.945 144.94 319.402 145.154C318.859 145.368 318.256 145.475 317.594 145.475H314.276V136.848H317.594C318.256 136.848 318.859 136.955 319.402 137.169C319.945 137.383 320.408 137.682 320.793 138.067C321.181 138.447 321.481 138.901 321.691 139.428C321.905 139.955 322.012 140.532 322.012 141.158ZM320.181 141.158C320.181 140.706 320.121 140.3 320.002 139.939C319.883 139.579 319.713 139.274 319.491 139.024C319.269 138.774 318.997 138.582 318.676 138.447C318.359 138.312 317.998 138.245 317.594 138.245H316.072V144.078H317.594C317.998 144.078 318.359 144.012 318.676 143.882C318.997 143.747 319.269 143.554 319.491 143.305C319.713 143.051 319.883 142.744 320.002 142.383C320.121 142.022 320.181 141.614 320.181 141.158Z" fill="#038C73"/>
<path d="M103.743 186.067C103.687 186.158 103.63 186.225 103.57 186.269C103.515 186.309 103.441 186.329 103.35 186.329C103.263 186.329 103.168 186.299 103.065 186.239C102.966 186.176 102.849 186.109 102.714 186.037C102.579 185.966 102.425 185.9 102.25 185.841C102.076 185.778 101.872 185.746 101.638 185.746C101.226 185.746 100.917 185.839 100.71 186.025C100.504 186.208 100.401 186.447 100.401 186.745C100.401 186.935 100.457 187.094 100.568 187.22C100.683 187.343 100.831 187.45 101.014 187.541C101.2 187.633 101.41 187.714 101.644 187.785C101.878 187.857 102.118 187.936 102.363 188.023C102.609 188.106 102.849 188.205 103.083 188.32C103.317 188.435 103.525 188.58 103.707 188.754C103.893 188.929 104.042 189.143 104.153 189.397C104.268 189.646 104.325 189.951 104.325 190.312C104.325 190.705 104.256 191.073 104.117 191.418C103.983 191.759 103.786 192.058 103.529 192.316C103.271 192.57 102.952 192.77 102.571 192.916C102.195 193.063 101.767 193.136 101.287 193.136C101.014 193.136 100.74 193.109 100.467 193.053C100.197 192.998 99.9355 192.92 99.6818 192.821C99.4321 192.722 99.1962 192.603 98.9742 192.465C98.7523 192.326 98.558 192.171 98.3915 192.001L98.9148 191.156C98.9584 191.093 99.0158 191.042 99.0872 191.002C99.1585 190.958 99.2339 190.936 99.3131 190.936C99.4202 190.936 99.5331 190.976 99.652 191.055C99.771 191.135 99.9077 191.222 100.062 191.317C100.217 191.412 100.395 191.499 100.597 191.579C100.804 191.658 101.049 191.698 101.335 191.698C101.751 191.698 102.072 191.602 102.298 191.412C102.528 191.222 102.643 190.938 102.643 190.562C102.643 190.344 102.585 190.168 102.47 190.033C102.359 189.898 102.213 189.785 102.03 189.694C101.848 189.603 101.64 189.525 101.406 189.462C101.172 189.395 100.932 189.321 100.687 189.242C100.441 189.163 100.201 189.068 99.9672 188.957C99.7333 188.846 99.5252 188.699 99.3429 188.517C99.1605 188.334 99.0119 188.108 98.8969 187.839C98.7859 187.569 98.7305 187.234 98.7305 186.834C98.7305 186.513 98.7939 186.202 98.9207 185.9C99.0476 185.599 99.2339 185.332 99.4796 185.098C99.7254 184.864 100.027 184.676 100.383 184.533C100.744 184.39 101.156 184.319 101.62 184.319C102.139 184.319 102.619 184.4 103.059 184.563C103.503 184.721 103.878 184.943 104.183 185.229L103.743 186.067Z" fill="#038C73"/>
<path d="M97.416 185.853H94.895V193.041H93.1053V185.853H90.5843V184.414H97.416V185.853Z" fill="#038C73"/>
<path d="M85.8893 188.499C86.1787 188.499 86.4284 188.463 86.6385 188.392C86.8486 188.316 87.021 188.215 87.1558 188.089C87.2905 187.958 87.3896 187.805 87.4531 187.631C87.5165 187.456 87.5482 187.266 87.5482 187.06C87.5482 186.652 87.4114 186.335 87.1379 186.109C86.8684 185.883 86.4561 185.77 85.9012 185.77H84.9737V188.499H85.8893ZM90.0692 193.041H88.4579C88.1566 193.041 87.9386 192.926 87.8039 192.697L86.1628 190.051C86.0954 189.948 86.0201 189.872 85.9369 189.825C85.8576 189.777 85.7387 189.753 85.5801 189.753H84.9737V193.041H83.1899V184.414H85.9012C86.5037 184.414 87.019 184.477 87.4471 184.604C87.8752 184.727 88.226 184.9 88.4995 185.122C88.773 185.344 88.9732 185.609 89.1 185.918C89.2269 186.224 89.2903 186.56 89.2903 186.929C89.2903 187.215 89.2487 187.486 89.1654 187.744C89.0862 187.997 88.9692 188.229 88.8146 188.439C88.66 188.649 88.4698 188.836 88.2438 188.998C88.0179 189.161 87.7603 189.292 87.4709 189.391C87.5858 189.454 87.6929 189.531 87.792 189.623C87.8911 189.71 87.9802 189.815 88.0595 189.938L90.0692 193.041Z" fill="#038C73"/>
<path d="M77.5627 185.811V188.029H80.4405V189.379H77.5627V191.644H81.261V193.041H75.7671V184.414H81.261V185.811H77.5627Z" fill="#038C73"/>
<path d="M70.6305 188.707C71.1894 188.707 71.5976 188.572 71.8553 188.303C72.1169 188.033 72.2477 187.664 72.2477 187.197C72.2477 186.983 72.214 186.788 72.1466 186.614C72.0832 186.436 71.9841 186.285 71.8493 186.162C71.7185 186.035 71.5521 185.938 71.3499 185.871C71.1478 185.803 70.9079 185.77 70.6305 185.77H69.5008V188.707H70.6305ZM70.6305 184.414C71.2211 184.414 71.7304 184.483 72.1585 184.622C72.5906 184.761 72.9454 184.955 73.2228 185.205C73.5003 185.451 73.7044 185.744 73.8352 186.085C73.97 186.426 74.0374 186.796 74.0374 187.197C74.0374 187.621 73.968 188.009 73.8293 188.362C73.6906 188.715 73.4805 189.018 73.199 189.272C72.9176 189.525 72.5628 189.724 72.1347 189.866C71.7067 190.005 71.2052 190.074 70.6305 190.074H69.5008V193.041H67.717V184.414H70.6305Z" fill="#038C73"/>
<path d="M66.2284 193.041H64.4447C64.3258 193.041 64.2286 193.012 64.1533 192.952C64.082 192.893 64.0245 192.823 63.9809 192.744L62.1139 189.569C62.0941 189.613 62.0743 189.656 62.0545 189.7C62.0386 189.739 62.0188 189.777 61.995 189.813L60.2232 192.744C60.1716 192.819 60.1102 192.889 60.0389 192.952C59.9715 193.012 59.8843 193.041 59.7772 193.041H58.1124L60.9367 188.6L58.2195 184.414H60.0032C60.1221 184.414 60.2093 184.43 60.2648 184.462C60.3203 184.493 60.3698 184.545 60.4134 184.616L62.2685 187.666C62.2883 187.619 62.3101 187.571 62.3339 187.524C62.3577 187.472 62.3855 187.421 62.4172 187.369L64.082 184.646C64.1295 184.567 64.1811 184.509 64.2366 184.474C64.296 184.434 64.3674 184.414 64.4506 184.414H66.1571L63.4161 188.523L66.2284 193.041Z" fill="#038C73"/>
<path d="M53.4126 185.811V188.029H56.2904V189.379H53.4126V191.644H57.1109V193.041H51.617V184.414H57.1109V185.811H53.4126Z" fill="#038C73"/>
<path d="M44.167 189.724V193.041H42.3833V189.724L39.2499 184.414H40.8196C40.9742 184.414 41.097 184.452 41.1882 184.527C41.2833 184.598 41.3586 184.692 41.4141 184.806L42.8292 187.524C42.9244 187.706 43.0096 187.876 43.0849 188.035C43.1642 188.194 43.2335 188.352 43.293 188.511C43.3485 188.352 43.4119 188.194 43.4833 188.035C43.5586 187.873 43.6418 187.702 43.733 187.524L45.1362 184.806C45.1838 184.711 45.2551 184.622 45.3502 184.539C45.4454 184.456 45.5683 184.414 45.7189 184.414H47.3005L44.167 189.724Z" fill="#038C73"/>
<path d="M37.7078 190.919C37.8069 190.919 37.8902 190.954 37.9575 191.026L38.6651 191.781C38.3163 192.225 37.8822 192.562 37.363 192.792C36.8477 193.021 36.2333 193.136 35.5198 193.136C34.8737 193.136 34.293 193.027 33.7777 192.809C33.2624 192.587 32.8244 192.28 32.4637 191.888C32.1029 191.495 31.8255 191.03 31.6312 190.491C31.437 189.951 31.3399 189.363 31.3399 188.725C31.3399 188.297 31.3855 187.89 31.4767 187.506C31.5718 187.117 31.7085 186.761 31.8869 186.436C32.0653 186.111 32.2793 185.817 32.5291 185.556C32.7827 185.294 33.0681 185.072 33.3852 184.89C33.7024 184.703 34.0472 184.563 34.4198 184.467C34.7964 184.368 35.1967 184.319 35.6209 184.319C35.938 184.319 36.2372 184.347 36.5187 184.402C36.8041 184.458 37.0696 184.535 37.3154 184.634C37.5612 184.733 37.7871 184.854 37.9932 184.997C38.2033 185.135 38.3916 185.288 38.5581 185.454L37.9575 186.275C37.9219 186.327 37.8763 186.372 37.8208 186.412C37.7653 186.451 37.69 186.471 37.5949 186.471C37.4997 186.471 37.4026 186.438 37.3035 186.37C37.2084 186.303 37.0895 186.227 36.9468 186.144C36.808 186.061 36.6316 185.986 36.4176 185.918C36.2075 185.851 35.9399 185.817 35.6149 185.817C35.2542 185.817 34.9232 185.883 34.622 186.013C34.3207 186.144 34.0611 186.334 33.8431 186.584C33.629 186.83 33.4625 187.133 33.3436 187.494C33.2247 187.855 33.1653 188.265 33.1653 188.725C33.1653 189.188 33.2287 189.603 33.3555 189.967C33.4863 190.328 33.6627 190.633 33.8847 190.883C34.1106 191.133 34.3722 191.323 34.6695 191.454C34.9708 191.581 35.2919 191.644 35.6327 191.644C35.8349 191.644 36.0172 191.634 36.1798 191.614C36.3462 191.594 36.4989 191.561 36.6376 191.513C36.7803 191.466 36.9131 191.404 37.036 191.329C37.1628 191.254 37.2896 191.158 37.4165 191.044C37.4601 191.008 37.5057 190.978 37.5532 190.954C37.6008 190.931 37.6523 190.919 37.7078 190.919Z" fill="#038C73"/>
<path d="M29.4344 193.041H27.6388V184.414H29.4344V193.041Z" fill="#038C73"/>
<path d="M25.9507 191.591V193.041H20.8314V184.414H22.6151V191.591H25.9507Z" fill="#038C73"/>
<path d="M18.9341 188.725C18.9341 189.355 18.8271 189.94 18.6131 190.479C18.403 191.018 18.1037 191.484 17.7153 191.876C17.3308 192.268 16.867 192.578 16.3239 192.803C15.7809 193.025 15.1784 193.136 14.5164 193.136C13.8545 193.136 13.252 193.025 12.7089 192.803C12.1659 192.578 11.7001 192.268 11.3117 191.876C10.9232 191.484 10.6219 191.018 10.4079 190.479C10.1978 189.94 10.0928 189.355 10.0928 188.725C10.0928 188.094 10.1978 187.512 10.4079 186.977C10.6219 186.438 10.9232 185.972 11.3117 185.579C11.7001 185.187 12.1659 184.88 12.7089 184.658C13.252 184.432 13.8545 184.319 14.5164 184.319C15.1784 184.319 15.7809 184.432 16.3239 184.658C16.867 184.88 17.3308 185.189 17.7153 185.585C18.1037 185.978 18.403 186.443 18.6131 186.983C18.8271 187.518 18.9341 188.098 18.9341 188.725ZM17.1088 188.725C17.1088 188.273 17.0493 187.868 16.9304 187.512C16.8115 187.151 16.6391 186.846 16.4131 186.596C16.1912 186.342 15.9196 186.15 15.5986 186.019C15.2815 185.885 14.9207 185.817 14.5164 185.817C14.1121 185.817 13.7494 185.885 13.4284 186.019C13.1073 186.15 12.8338 186.342 12.6078 186.596C12.3859 186.846 12.2154 187.151 12.0965 187.512C11.9776 187.868 11.9181 188.273 11.9181 188.725C11.9181 189.181 11.9776 189.589 12.0965 189.949C12.2154 190.306 12.3859 190.609 12.6078 190.859C12.8338 191.109 13.1073 191.301 13.4284 191.436C13.7494 191.567 14.1121 191.632 14.5164 191.632C14.9207 191.632 15.2815 191.567 15.5986 191.436C15.9196 191.301 16.1912 191.109 16.4131 190.859C16.6391 190.609 16.8115 190.306 16.9304 189.949C17.0493 189.589 17.1088 189.181 17.1088 188.725Z" fill="#038C73"/>
<path d="M5.46158 188.707C6.02049 188.707 6.42876 188.572 6.68641 188.303C6.94803 188.033 7.07883 187.664 7.07883 187.197C7.07883 186.983 7.04514 186.788 6.97776 186.614C6.91433 186.436 6.81524 186.285 6.68047 186.162C6.54966 186.035 6.38318 185.938 6.18102 185.871C5.97887 185.803 5.73905 185.77 5.46158 185.77H4.33189V188.707H5.46158ZM5.46158 184.414C6.0522 184.414 6.56155 184.483 6.98965 184.622C7.42171 184.761 7.77647 184.955 8.05394 185.205C8.33141 185.451 8.53555 185.744 8.66636 186.085C8.80113 186.426 8.86851 186.796 8.86851 187.197C8.86851 187.621 8.79914 188.009 8.66041 188.362C8.52168 188.715 8.31159 189.018 8.03016 189.272C7.74872 189.525 7.39396 189.724 6.96586 189.866C6.53777 190.005 6.03634 190.074 5.46158 190.074H4.33189V193.041H2.54816V184.414H5.46158Z" fill="#038C73"/>
<path d="M415.407 271.007C415.352 271.098 415.294 271.165 415.235 271.209C415.179 271.249 415.106 271.268 415.015 271.268C414.928 271.268 414.833 271.239 414.73 271.179C414.63 271.116 414.514 271.048 414.379 270.977C414.244 270.906 414.089 270.84 413.915 270.781C413.741 270.717 413.536 270.686 413.303 270.686C412.89 270.686 412.581 270.779 412.375 270.965C412.169 271.148 412.066 271.387 412.066 271.685C412.066 271.875 412.121 272.033 412.232 272.16C412.347 272.283 412.496 272.39 412.678 272.481C412.865 272.573 413.075 272.654 413.308 272.725C413.542 272.797 413.782 272.876 414.028 272.963C414.274 273.046 414.514 273.145 414.747 273.26C414.981 273.375 415.189 273.52 415.372 273.694C415.558 273.869 415.707 274.083 415.818 274.336C415.933 274.586 415.99 274.891 415.99 275.252C415.99 275.645 415.921 276.013 415.782 276.358C415.647 276.699 415.451 276.998 415.193 277.256C414.936 277.51 414.617 277.71 414.236 277.856C413.859 278.003 413.431 278.076 412.952 278.076C412.678 278.076 412.405 278.049 412.131 277.993C411.862 277.938 411.6 277.86 411.346 277.761C411.097 277.662 410.861 277.543 410.639 277.404C410.417 277.266 410.223 277.111 410.056 276.941L410.579 276.096C410.623 276.033 410.68 275.981 410.752 275.942C410.823 275.898 410.898 275.876 410.978 275.876C411.085 275.876 411.198 275.916 411.317 275.995C411.436 276.075 411.572 276.162 411.727 276.257C411.882 276.352 412.06 276.439 412.262 276.519C412.468 276.598 412.714 276.637 412.999 276.637C413.416 276.637 413.737 276.542 413.963 276.352C414.192 276.162 414.307 275.878 414.307 275.502C414.307 275.284 414.25 275.107 414.135 274.973C414.024 274.838 413.877 274.725 413.695 274.634C413.513 274.543 413.305 274.465 413.071 274.402C412.837 274.334 412.597 274.261 412.351 274.182C412.105 274.103 411.866 274.007 411.632 273.896C411.398 273.786 411.19 273.639 411.007 273.457C410.825 273.274 410.676 273.048 410.562 272.779C410.451 272.509 410.395 272.174 410.395 271.774C410.395 271.453 410.458 271.142 410.585 270.84C410.712 270.539 410.898 270.272 411.144 270.038C411.39 269.804 411.691 269.616 412.048 269.473C412.409 269.33 412.821 269.259 413.285 269.259C413.804 269.259 414.284 269.34 414.724 269.503C415.168 269.661 415.542 269.883 415.847 270.168L415.407 271.007Z" fill="#038C73"/>
<path d="M409.081 270.792H406.56V277.981H404.77V270.792H402.249V269.354H409.081V270.792Z" fill="#038C73"/>
<path d="M397.554 273.438C397.843 273.438 398.093 273.403 398.303 273.331C398.513 273.256 398.686 273.155 398.82 273.028C398.955 272.897 399.054 272.745 399.118 272.57C399.181 272.396 399.213 272.206 399.213 271.999C399.213 271.591 399.076 271.274 398.802 271.048C398.533 270.822 398.121 270.709 397.566 270.709H396.638V273.438H397.554ZM401.734 277.981H400.122C399.821 277.981 399.603 277.866 399.468 277.636L397.827 274.99C397.76 274.887 397.685 274.812 397.601 274.764C397.522 274.717 397.403 274.693 397.245 274.693H396.638V277.981H394.854V269.354H397.566C398.168 269.354 398.684 269.417 399.112 269.544C399.54 269.667 399.891 269.839 400.164 270.061C400.438 270.283 400.638 270.549 400.765 270.858C400.891 271.163 400.955 271.5 400.955 271.869C400.955 272.154 400.913 272.425 400.83 272.683C400.751 272.937 400.634 273.169 400.479 273.379C400.325 273.589 400.134 273.775 399.908 273.938C399.682 274.1 399.425 274.231 399.135 274.33C399.25 274.394 399.357 274.471 399.457 274.562C399.556 274.649 399.645 274.754 399.724 274.877L401.734 277.981Z" fill="#038C73"/>
<path d="M389.227 270.751V272.969H392.105V274.318H389.227V276.584H392.926V277.981H387.432V269.354H392.926V270.751H389.227Z" fill="#038C73"/>
<path d="M382.295 273.646C382.854 273.646 383.262 273.512 383.52 273.242C383.782 272.973 383.912 272.604 383.912 272.136C383.912 271.922 383.879 271.728 383.811 271.553C383.748 271.375 383.649 271.224 383.514 271.102C383.383 270.975 383.217 270.878 383.015 270.81C382.812 270.743 382.573 270.709 382.295 270.709H381.165V273.646H382.295ZM382.295 269.354C382.886 269.354 383.395 269.423 383.823 269.562C384.255 269.7 384.61 269.895 384.887 270.144C385.165 270.39 385.369 270.683 385.5 271.024C385.635 271.365 385.702 271.736 385.702 272.136C385.702 272.56 385.633 272.949 385.494 273.302C385.355 273.654 385.145 273.958 384.864 274.211C384.582 274.465 384.228 274.663 383.799 274.806C383.371 274.945 382.87 275.014 382.295 275.014H381.165V277.981H379.382V269.354H382.295Z" fill="#038C73"/>
<path d="M377.893 277.981H376.109C375.99 277.981 375.893 277.951 375.818 277.892C375.747 277.832 375.689 277.763 375.645 277.684L373.778 274.508C373.759 274.552 373.739 274.596 373.719 274.639C373.703 274.679 373.683 274.717 373.66 274.752L371.888 277.684C371.836 277.759 371.775 277.828 371.703 277.892C371.636 277.951 371.549 277.981 371.442 277.981H369.777L372.601 273.539L369.884 269.354H371.668C371.787 269.354 371.874 269.369 371.929 269.401C371.985 269.433 372.034 269.484 372.078 269.556L373.933 272.606C373.953 272.558 373.975 272.511 373.998 272.463C374.022 272.412 374.05 272.36 374.082 272.309L375.747 269.585C375.794 269.506 375.846 269.449 375.901 269.413C375.961 269.373 376.032 269.354 376.115 269.354H377.822L375.081 273.462L377.893 277.981Z" fill="#038C73"/>
<path d="M365.077 270.751V272.969H367.955V274.318H365.077V276.584H368.776V277.981H363.282V269.354H368.776V270.751H365.077Z" fill="#038C73"/>
<path d="M357.96 273.664C357.96 274.294 357.853 274.875 357.638 275.406C357.428 275.934 357.129 276.387 356.741 276.768C356.356 277.148 355.892 277.446 355.349 277.66C354.806 277.874 354.204 277.981 353.542 277.981H350.224V269.354H353.542C354.204 269.354 354.806 269.461 355.349 269.675C355.892 269.889 356.356 270.188 356.741 270.572C357.129 270.953 357.428 271.407 357.638 271.934C357.853 272.461 357.96 273.038 357.96 273.664ZM356.128 273.664C356.128 273.212 356.069 272.806 355.95 272.445C355.831 272.085 355.661 271.779 355.439 271.53C355.217 271.28 354.945 271.088 354.624 270.953C354.307 270.818 353.946 270.751 353.542 270.751H352.02V276.584H353.542C353.946 276.584 354.307 276.518 354.624 276.387C354.945 276.253 355.217 276.06 355.439 275.811C355.661 275.557 355.831 275.25 355.95 274.889C356.069 274.528 356.128 274.12 356.128 273.664Z" fill="#038C73"/>
<path d="M348.536 276.53V277.981H343.417V269.354H345.2V276.53H348.536Z" fill="#038C73"/>
<path d="M337.789 270.751V272.969H340.667V274.318H337.789V276.584H341.488V277.981H335.994V269.354H341.488V270.751H337.789Z" fill="#038C73"/>
<path d="M333.595 277.981H331.799V269.354H333.595V277.981Z" fill="#038C73"/>
<path d="M326.265 270.751V273.135H329.368V274.538H326.265V277.981H324.469V269.354H329.963V270.751H326.265Z" fill="#038C73"/>
<path d="M390.511 368.687C390.455 368.778 390.398 368.846 390.338 368.889C390.283 368.929 390.209 368.949 390.118 368.949C390.031 368.949 389.936 368.919 389.833 368.859C389.734 368.796 389.617 368.729 389.482 368.657C389.347 368.586 389.193 368.521 389.018 368.461C388.844 368.398 388.64 368.366 388.406 368.366C387.994 368.366 387.685 368.459 387.478 368.645C387.272 368.828 387.169 369.068 387.169 369.365C387.169 369.555 387.225 369.714 387.336 369.841C387.451 369.963 387.599 370.07 387.782 370.162C387.968 370.253 388.178 370.334 388.412 370.405C388.646 370.477 388.886 370.556 389.131 370.643C389.377 370.726 389.617 370.826 389.851 370.94C390.085 371.055 390.293 371.2 390.475 371.375C390.661 371.549 390.81 371.763 390.921 372.017C391.036 372.266 391.093 372.572 391.093 372.932C391.093 373.325 391.024 373.693 390.885 374.038C390.751 374.379 390.554 374.678 390.297 374.936C390.039 375.19 389.72 375.39 389.339 375.537C388.963 375.683 388.535 375.757 388.055 375.757C387.782 375.757 387.508 375.729 387.235 375.673C386.965 375.618 386.703 375.541 386.45 375.441C386.2 375.342 385.964 375.223 385.742 375.085C385.52 374.946 385.326 374.791 385.16 374.621L385.683 373.777C385.726 373.713 385.784 373.662 385.855 373.622C385.927 373.578 386.002 373.557 386.081 373.557C386.188 373.557 386.301 373.596 386.42 373.676C386.539 373.755 386.676 373.842 386.83 373.937C386.985 374.032 387.163 374.119 387.365 374.199C387.572 374.278 387.817 374.318 388.103 374.318C388.519 374.318 388.84 374.223 389.066 374.032C389.296 373.842 389.411 373.559 389.411 373.182C389.411 372.964 389.353 372.788 389.238 372.653C389.127 372.518 388.981 372.405 388.798 372.314C388.616 372.223 388.408 372.145 388.174 372.082C387.94 372.015 387.7 371.941 387.455 371.862C387.209 371.783 386.969 371.688 386.735 371.577C386.501 371.466 386.293 371.319 386.111 371.137C385.929 370.954 385.78 370.728 385.665 370.459C385.554 370.189 385.498 369.854 385.498 369.454C385.498 369.133 385.562 368.822 385.689 368.521C385.816 368.219 386.002 367.952 386.248 367.718C386.493 367.484 386.795 367.296 387.151 367.153C387.512 367.01 387.924 366.939 388.388 366.939C388.907 366.939 389.387 367.02 389.827 367.183C390.271 367.341 390.646 367.563 390.951 367.849L390.511 368.687Z" fill="#038C73"/>
<path d="M384.184 368.473H381.663V375.661H379.873V368.473H377.352V367.034H384.184V368.473Z" fill="#038C73"/>
<path d="M372.657 371.119C372.947 371.119 373.196 371.083 373.407 371.012C373.617 370.937 373.789 370.836 373.924 370.709C374.059 370.578 374.158 370.425 374.221 370.251C374.285 370.076 374.316 369.886 374.316 369.68C374.316 369.272 374.18 368.955 373.906 368.729C373.636 368.503 373.224 368.39 372.669 368.39H371.742V371.119H372.657ZM376.837 375.661H375.226C374.925 375.661 374.707 375.547 374.572 375.317L372.931 372.671C372.864 372.568 372.788 372.492 372.705 372.445C372.626 372.397 372.507 372.373 372.348 372.373H371.742V375.661H369.958V367.034H372.669C373.272 367.034 373.787 367.098 374.215 367.224C374.643 367.347 374.994 367.52 375.268 367.742C375.541 367.964 375.741 368.229 375.868 368.538C375.995 368.844 376.058 369.181 376.058 369.549C376.058 369.835 376.017 370.106 375.934 370.364C375.854 370.617 375.737 370.849 375.583 371.059C375.428 371.27 375.238 371.456 375.012 371.618C374.786 371.781 374.528 371.912 374.239 372.011C374.354 372.074 374.461 372.152 374.56 372.243C374.659 372.33 374.748 372.435 374.828 372.558L376.837 375.661Z" fill="#038C73"/>
<path d="M364.331 368.431V370.649H367.208V371.999H364.331V374.264H368.029V375.661H362.535V367.034H368.029V368.431H364.331Z" fill="#038C73"/>
<path d="M357.398 371.327C357.957 371.327 358.366 371.192 358.623 370.923C358.885 370.653 359.016 370.285 359.016 369.817C359.016 369.603 358.982 369.409 358.915 369.234C358.851 369.056 358.752 368.905 358.617 368.782C358.486 368.655 358.32 368.558 358.118 368.491C357.916 368.424 357.676 368.39 357.398 368.39H356.269V371.327H357.398ZM357.398 367.034C357.989 367.034 358.498 367.104 358.926 367.242C359.359 367.381 359.713 367.575 359.991 367.825C360.268 368.071 360.472 368.364 360.603 368.705C360.738 369.046 360.805 369.416 360.805 369.817C360.805 370.241 360.736 370.629 360.597 370.982C360.459 371.335 360.248 371.638 359.967 371.892C359.686 372.146 359.331 372.344 358.903 372.486C358.475 372.625 357.973 372.695 357.398 372.695H356.269V375.661H354.485V367.034H357.398Z" fill="#038C73"/>
<path d="M352.996 375.661H351.213C351.094 375.661 350.997 375.632 350.921 375.572C350.85 375.513 350.792 375.443 350.749 375.364L348.882 372.189C348.862 372.233 348.842 372.276 348.822 372.32C348.807 372.36 348.787 372.397 348.763 372.433L346.991 375.364C346.94 375.44 346.878 375.509 346.807 375.572C346.739 375.632 346.652 375.661 346.545 375.661H344.88L347.705 371.22L344.987 367.034H346.771C346.89 367.034 346.977 367.05 347.033 367.082C347.088 367.113 347.138 367.165 347.181 367.236L349.036 370.287C349.056 370.239 349.078 370.191 349.102 370.144C349.126 370.092 349.153 370.041 349.185 369.989L350.85 367.266C350.897 367.187 350.949 367.129 351.005 367.094C351.064 367.054 351.135 367.034 351.219 367.034H352.925L350.184 371.143L352.996 375.661Z" fill="#038C73"/>
<path d="M340.181 368.431V370.649H343.058V371.999H340.181V374.264H343.879V375.661H338.385V367.034H343.879V368.431H340.181Z" fill="#038C73"/>
<path d="M333.64 374.211V375.661H328.521V367.034H330.305V374.211H333.64Z" fill="#038C73"/>
<path d="M324.131 372.385L323.198 369.745C323.142 369.607 323.083 369.444 323.019 369.258C322.96 369.072 322.902 368.869 322.847 368.651C322.792 368.873 322.732 369.08 322.669 369.27C322.609 369.456 322.552 369.619 322.496 369.757L321.569 372.385H324.131ZM327.128 375.661H325.743C325.588 375.661 325.461 375.626 325.362 375.554C325.267 375.479 325.196 375.384 325.148 375.269L324.565 373.622H321.129L320.546 375.269C320.506 375.368 320.437 375.459 320.338 375.543C320.239 375.622 320.114 375.661 319.963 375.661H318.566L321.937 367.034H323.763L327.128 375.661Z" fill="#038C73"/>
<path d="M317.018 373.539C317.117 373.539 317.2 373.574 317.268 373.646L317.975 374.401C317.626 374.845 317.192 375.182 316.673 375.412C316.158 375.642 315.543 375.757 314.83 375.757C314.184 375.757 313.603 375.648 313.088 375.43C312.572 375.208 312.134 374.9 311.774 374.508C311.413 374.116 311.136 373.65 310.941 373.111C310.747 372.572 310.65 371.983 310.65 371.345C310.65 370.917 310.696 370.51 310.787 370.126C310.882 369.737 311.019 369.381 311.197 369.056C311.375 368.731 311.589 368.437 311.839 368.176C312.093 367.914 312.378 367.692 312.695 367.51C313.012 367.323 313.357 367.183 313.73 367.088C314.106 366.989 314.507 366.939 314.931 366.939C315.248 366.939 315.547 366.967 315.829 367.022C316.114 367.078 316.38 367.155 316.626 367.254C316.871 367.353 317.097 367.474 317.303 367.617C317.513 367.756 317.702 367.908 317.868 368.075L317.268 368.895C317.232 368.947 317.186 368.992 317.131 369.032C317.075 369.072 317 369.091 316.905 369.091C316.81 369.091 316.713 369.058 316.614 368.99C316.519 368.923 316.4 368.848 316.257 368.764C316.118 368.681 315.942 368.606 315.728 368.538C315.518 368.471 315.25 368.437 314.925 368.437C314.564 368.437 314.233 368.503 313.932 368.634C313.631 368.764 313.371 368.955 313.153 369.204C312.939 369.45 312.773 369.753 312.654 370.114C312.535 370.475 312.475 370.885 312.475 371.345C312.475 371.809 312.539 372.223 312.666 372.587C312.796 372.948 312.973 373.253 313.195 373.503C313.421 373.753 313.682 373.943 313.98 374.074C314.281 374.201 314.602 374.264 314.943 374.264C315.145 374.264 315.327 374.254 315.49 374.234C315.656 374.215 315.809 374.181 315.948 374.133C316.09 374.086 316.223 374.024 316.346 373.949C316.473 373.874 316.6 373.779 316.727 373.664C316.77 373.628 316.816 373.598 316.863 373.574C316.911 373.551 316.962 373.539 317.018 373.539Z" fill="#038C73"/>
<path d="M308.745 375.661H306.949V367.034H308.745V375.661Z" fill="#038C73"/>
<path d="M301.812 371.327C302.371 371.327 302.78 371.192 303.037 370.923C303.299 370.653 303.43 370.285 303.43 369.817C303.43 369.603 303.396 369.409 303.329 369.234C303.265 369.056 303.166 368.905 303.031 368.782C302.901 368.655 302.734 368.558 302.532 368.491C302.33 368.424 302.09 368.39 301.812 368.39H300.683V371.327H301.812ZM301.812 367.034C302.403 367.034 302.912 367.104 303.341 367.242C303.773 367.381 304.127 367.575 304.405 367.825C304.682 368.071 304.886 368.364 305.017 368.705C305.152 369.046 305.219 369.416 305.219 369.817C305.219 370.241 305.15 370.629 305.011 370.982C304.873 371.335 304.662 371.638 304.381 371.892C304.1 372.146 303.745 372.344 303.317 372.486C302.889 372.625 302.387 372.695 301.812 372.695H300.683V375.661H298.899V367.034H301.812Z" fill="#038C73"/>
<path d="M297.002 371.345C297.002 371.975 296.895 372.56 296.681 373.099C296.471 373.638 296.171 374.104 295.783 374.496C295.398 374.888 294.935 375.198 294.392 375.424C293.849 375.646 293.246 375.757 292.584 375.757C291.922 375.757 291.32 375.646 290.777 375.424C290.233 375.198 289.768 374.888 289.379 374.496C288.991 374.104 288.69 373.638 288.476 373.099C288.265 372.56 288.16 371.975 288.16 371.345C288.16 370.715 288.265 370.132 288.476 369.597C288.69 369.058 288.991 368.592 289.379 368.199C289.768 367.807 290.233 367.5 290.777 367.278C291.32 367.052 291.922 366.939 292.584 366.939C293.246 366.939 293.849 367.052 294.392 367.278C294.935 367.5 295.398 367.809 295.783 368.205C296.171 368.598 296.471 369.064 296.681 369.603C296.895 370.138 297.002 370.718 297.002 371.345ZM295.176 371.345C295.176 370.893 295.117 370.489 294.998 370.132C294.879 369.771 294.707 369.466 294.481 369.216C294.259 368.963 293.987 368.77 293.666 368.639C293.349 368.505 292.988 368.437 292.584 368.437C292.18 368.437 291.817 368.505 291.496 368.639C291.175 368.77 290.901 368.963 290.675 369.216C290.453 369.466 290.283 369.771 290.164 370.132C290.045 370.489 289.986 370.893 289.986 371.345C289.986 371.801 290.045 372.209 290.164 372.57C290.283 372.926 290.453 373.23 290.675 373.479C290.901 373.729 291.175 373.921 291.496 374.056C291.817 374.187 292.18 374.252 292.584 374.252C292.988 374.252 293.349 374.187 293.666 374.056C293.987 373.921 294.259 373.729 294.481 373.479C294.707 373.23 294.879 372.926 294.998 372.57C295.117 372.209 295.176 371.801 295.176 371.345Z" fill="#038C73"/>
<path d="M287.256 368.473H284.735V375.661H282.946V368.473H280.425V367.034H287.256V368.473Z" fill="#038C73"/>
<path d="M137.199 359.344C137.143 359.435 137.086 359.502 137.027 359.546C136.971 359.586 136.898 359.605 136.807 359.605C136.719 359.605 136.624 359.576 136.521 359.516C136.422 359.453 136.305 359.385 136.17 359.314C136.036 359.243 135.881 359.177 135.707 359.118C135.532 359.054 135.328 359.023 135.094 359.023C134.682 359.023 134.373 359.116 134.167 359.302C133.961 359.484 133.857 359.724 133.857 360.022C133.857 360.212 133.913 360.37 134.024 360.497C134.139 360.62 134.288 360.727 134.47 360.818C134.656 360.909 134.866 360.991 135.1 361.062C135.334 361.133 135.574 361.213 135.82 361.3C136.065 361.383 136.305 361.482 136.539 361.597C136.773 361.712 136.981 361.857 137.163 362.031C137.35 362.206 137.498 362.42 137.609 362.673C137.724 362.923 137.782 363.228 137.782 363.589C137.782 363.981 137.712 364.35 137.574 364.695C137.439 365.036 137.243 365.335 136.985 365.593C136.727 365.846 136.408 366.047 136.028 366.193C135.651 366.34 135.223 366.413 134.743 366.413C134.47 366.413 134.196 366.386 133.923 366.33C133.653 366.275 133.392 366.197 133.138 366.098C132.888 365.999 132.652 365.88 132.43 365.741C132.208 365.603 132.014 365.448 131.848 365.278L132.371 364.433C132.415 364.37 132.472 364.318 132.543 364.279C132.615 364.235 132.69 364.213 132.769 364.213C132.876 364.213 132.989 364.253 133.108 364.332C133.227 364.412 133.364 364.499 133.519 364.594C133.673 364.689 133.852 364.776 134.054 364.855C134.26 364.935 134.506 364.974 134.791 364.974C135.207 364.974 135.528 364.879 135.754 364.689C135.984 364.499 136.099 364.215 136.099 363.839C136.099 363.621 136.042 363.444 135.927 363.31C135.816 363.175 135.669 363.062 135.487 362.971C135.304 362.88 135.096 362.802 134.862 362.739C134.628 362.671 134.389 362.598 134.143 362.519C133.897 362.44 133.657 362.344 133.423 362.233C133.19 362.122 132.981 361.976 132.799 361.793C132.617 361.611 132.468 361.385 132.353 361.116C132.242 360.846 132.187 360.511 132.187 360.111C132.187 359.79 132.25 359.479 132.377 359.177C132.504 358.876 132.69 358.608 132.936 358.375C133.182 358.141 133.483 357.952 133.84 357.81C134.2 357.667 134.613 357.596 135.076 357.596C135.596 357.596 136.075 357.677 136.515 357.839C136.959 357.998 137.334 358.22 137.639 358.505L137.199 359.344Z" fill="#038C73"/>
<path d="M126.908 361.776C127.197 361.776 127.447 361.74 127.657 361.669C127.867 361.593 128.04 361.492 128.174 361.365C128.309 361.235 128.408 361.082 128.472 360.908C128.535 360.733 128.567 360.543 128.567 360.337C128.567 359.929 128.43 359.611 128.156 359.385C127.887 359.16 127.475 359.047 126.92 359.047H125.992V361.776H126.908ZM131.088 366.318H129.476C129.175 366.318 128.957 366.203 128.822 365.973L127.181 363.328C127.114 363.224 127.039 363.149 126.955 363.102C126.876 363.054 126.757 363.03 126.599 363.03H125.992V366.318H124.208V357.691H126.92C127.522 357.691 128.038 357.754 128.466 357.881C128.894 358.004 129.245 358.176 129.518 358.398C129.792 358.62 129.992 358.886 130.119 359.195C130.245 359.5 130.309 359.837 130.309 360.206C130.309 360.491 130.267 360.763 130.184 361.021C130.105 361.274 129.988 361.506 129.833 361.716C129.679 361.926 129.488 362.113 129.262 362.275C129.036 362.438 128.779 362.568 128.489 362.668C128.604 362.731 128.711 362.808 128.811 362.899C128.91 362.987 128.999 363.092 129.078 363.215L131.088 366.318Z" fill="#038C73"/>
<path d="M118.581 359.088V361.306H121.459V362.656H118.581V364.921H122.28V366.318H116.786V357.691H122.28V359.088H118.581Z" fill="#038C73"/>
<path d="M111.772 361.924H114.733V365.486C114.293 365.807 113.823 366.043 113.324 366.193C112.828 366.34 112.303 366.413 111.748 366.413C111.039 366.413 110.397 366.304 109.822 366.086C109.247 365.864 108.756 365.557 108.347 365.165C107.939 364.772 107.624 364.306 107.402 363.767C107.18 363.228 107.069 362.64 107.069 362.002C107.069 361.355 107.174 360.763 107.384 360.224C107.598 359.685 107.901 359.221 108.294 358.832C108.686 358.444 109.16 358.141 109.715 357.923C110.274 357.705 110.898 357.596 111.588 357.596C111.944 357.596 112.277 357.625 112.587 357.685C112.896 357.74 113.181 357.82 113.443 357.923C113.704 358.022 113.944 358.141 114.162 358.279C114.38 358.418 114.578 358.571 114.757 358.737L114.24 359.534C114.16 359.661 114.057 359.738 113.93 359.766C113.803 359.794 113.665 359.762 113.514 359.671C113.371 359.584 113.231 359.506 113.092 359.439C112.957 359.368 112.813 359.306 112.658 359.255C112.503 359.203 112.335 359.163 112.153 359.136C111.97 359.108 111.76 359.094 111.522 359.094C111.122 359.094 110.759 359.163 110.434 359.302C110.109 359.441 109.832 359.637 109.602 359.891C109.376 360.144 109.201 360.45 109.079 360.806C108.956 361.163 108.894 361.562 108.894 362.002C108.894 362.477 108.962 362.903 109.096 363.28C109.231 363.652 109.421 363.968 109.667 364.225C109.913 364.483 110.206 364.679 110.547 364.814C110.892 364.949 111.275 365.016 111.695 365.016C111.98 365.016 112.234 364.988 112.456 364.933C112.682 364.873 112.902 364.794 113.116 364.695V363.244H112.141C112.026 363.244 111.935 363.214 111.867 363.155C111.804 363.092 111.772 363.012 111.772 362.917V361.924Z" fill="#038C73"/>
<path d="M103.452 363.042L102.518 360.402C102.463 360.263 102.403 360.101 102.34 359.915C102.28 359.728 102.223 359.526 102.167 359.308C102.112 359.53 102.052 359.736 101.989 359.927C101.929 360.113 101.872 360.275 101.817 360.414L100.889 363.042H103.452ZM106.448 366.318H105.063C104.908 366.318 104.781 366.283 104.682 366.211C104.587 366.136 104.516 366.041 104.468 365.926L103.886 364.279H100.449L99.8663 365.926C99.8267 366.025 99.7573 366.116 99.6582 366.199C99.5591 366.279 99.4342 366.318 99.2836 366.318H97.8864L101.258 357.691H103.083L106.448 366.318Z" fill="#038C73"/>
<path d="M96.4958 357.691V366.318H95.5742C95.4355 366.318 95.3186 366.296 95.2234 366.253C95.1283 366.205 95.0351 366.126 94.944 366.015L90.6452 360.545C90.6571 360.684 90.665 360.82 90.669 360.955C90.6769 361.09 90.6809 361.215 90.6809 361.33V366.318H89.1052V357.691H90.0447C90.12 357.691 90.1834 357.695 90.2349 357.703C90.2904 357.707 90.34 357.721 90.3836 357.744C90.4272 357.764 90.4688 357.792 90.5084 357.828C90.5481 357.863 90.5917 357.911 90.6392 357.97L94.9678 363.464C94.9519 363.314 94.94 363.169 94.9321 363.03C94.9242 362.888 94.9202 362.753 94.9202 362.626V357.691H96.4958Z" fill="#038C73"/>
<path d="M84.7155 363.042L83.782 360.402C83.7265 360.263 83.6671 360.101 83.6036 359.915C83.5442 359.728 83.4867 359.526 83.4312 359.308C83.3757 359.53 83.3163 359.736 83.2529 359.927C83.1934 360.113 83.1359 360.275 83.0804 360.414L82.1529 363.042H84.7155ZM87.7122 366.318H86.3268C86.1722 366.318 86.0454 366.283 85.9463 366.211C85.8512 366.136 85.7798 366.041 85.7322 365.926L85.1496 364.279H81.7129L81.1302 365.926C81.0906 366.025 81.0212 366.116 80.9221 366.199C80.823 366.279 80.6981 366.318 80.5475 366.318H79.1503L82.5215 357.691H84.3469L87.7122 366.318Z" fill="#038C73"/>
<path d="M77.7688 357.691V366.318H76.1932V361.021C76.1932 360.91 76.1951 360.791 76.1991 360.664C76.207 360.537 76.2189 360.408 76.2348 360.277L73.7673 364.957C73.6325 365.214 73.4244 365.343 73.143 365.343H72.8933C72.7545 365.343 72.6316 365.311 72.5246 365.248C72.4176 365.181 72.3324 365.083 72.2689 364.957L69.7896 360.259C69.8015 360.398 69.8114 360.533 69.8193 360.664C69.8272 360.791 69.8312 360.91 69.8312 361.021V366.318H68.2556V357.691H69.6112C69.6865 357.691 69.7539 357.693 69.8133 357.697C69.8728 357.701 69.9243 357.713 69.9679 357.733C70.0155 357.748 70.0571 357.776 70.0928 357.816C70.1324 357.851 70.1701 357.903 70.2058 357.97L72.6198 362.572C72.6951 362.711 72.7644 362.854 72.8278 363C72.8952 363.147 72.9587 363.298 73.0181 363.452C73.0776 363.294 73.139 363.139 73.2024 362.989C73.2698 362.838 73.3412 362.693 73.4165 362.555L75.8126 357.97C75.8483 357.903 75.886 357.851 75.9256 357.816C75.9652 357.776 76.0069 357.748 76.0505 357.733C76.098 357.713 76.1496 357.701 76.2051 357.697C76.2645 357.693 76.3339 357.691 76.4131 357.691H77.7688Z" fill="#038C73"/>
<path d="M62.4468 357.691V366.318H60.8711V361.021C60.8711 360.91 60.8731 360.791 60.8771 360.664C60.885 360.537 60.8969 360.408 60.9128 360.277L58.4453 364.957C58.3105 365.214 58.1024 365.343 57.821 365.343H57.5712C57.4325 365.343 57.3096 365.311 57.2026 365.248C57.0956 365.181 57.0103 365.083 56.9469 364.957L54.4675 360.259C54.4794 360.398 54.4893 360.533 54.4973 360.664C54.5052 360.791 54.5092 360.91 54.5092 361.021V366.318H52.9335V357.691H54.2892C54.3645 357.691 54.4319 357.693 54.4913 357.697C54.5508 357.701 54.6023 357.713 54.6459 357.733C54.6935 357.748 54.7351 357.776 54.7708 357.816C54.8104 357.851 54.8481 357.903 54.8837 357.97L57.2977 362.572C57.373 362.711 57.4424 362.854 57.5058 363C57.5732 363.147 57.6366 363.298 57.6961 363.452C57.7556 363.294 57.817 363.139 57.8804 362.989C57.9478 362.838 58.0192 362.693 58.0945 362.555L60.4906 357.97C60.5263 357.903 60.5639 357.851 60.6036 357.816C60.6432 357.776 60.6848 357.748 60.7284 357.733C60.776 357.713 60.8275 357.701 60.883 357.697C60.9425 357.693 61.0119 357.691 61.0911 357.691H62.4468Z" fill="#038C73"/>
<path d="M48.5438 363.042L47.6103 360.402C47.5548 360.263 47.4954 360.101 47.432 359.915C47.3725 359.728 47.315 359.526 47.2595 359.308C47.204 359.53 47.1446 359.736 47.0812 359.927C47.0217 360.113 46.9642 360.275 46.9087 360.414L45.9812 363.042H48.5438ZM51.5405 366.318H50.1551C50.0005 366.318 49.8737 366.283 49.7746 366.211C49.6795 366.136 49.6081 366.041 49.5605 365.926L48.9779 364.279H45.5412L44.9585 365.926C44.9189 366.025 44.8495 366.116 44.7504 366.199C44.6513 366.279 44.5265 366.318 44.3758 366.318H42.9786L46.3498 357.691H48.1752L51.5405 366.318Z" fill="#038C73"/>
<path d="M38.3716 361.776C38.661 361.776 38.9107 361.74 39.1208 361.669C39.3309 361.593 39.5033 361.492 39.6381 361.365C39.7728 361.235 39.8719 361.082 39.9354 360.908C39.9988 360.733 40.0305 360.543 40.0305 360.337C40.0305 359.929 39.8937 359.611 39.6202 359.385C39.3507 359.16 38.9385 359.047 38.3835 359.047H37.456V361.776H38.3716ZM42.5515 366.318H40.9402C40.6389 366.318 40.4209 366.203 40.2862 365.973L38.6451 363.328C38.5777 363.224 38.5024 363.149 38.4192 363.102C38.3399 363.054 38.221 363.03 38.0624 363.03H37.456V366.318H35.6722V357.691H38.3835C38.986 357.691 39.5013 357.754 39.9294 357.881C40.3575 358.004 40.7083 358.176 40.9818 358.398C41.2553 358.62 41.4555 358.886 41.5823 359.195C41.7092 359.5 41.7726 359.837 41.7726 360.206C41.7726 360.491 41.731 360.763 41.6477 361.021C41.5685 361.274 41.4515 361.506 41.2969 361.716C41.1424 361.926 40.9521 362.113 40.7261 362.275C40.5002 362.438 40.2426 362.568 39.9532 362.668C40.0681 362.731 40.1752 362.808 40.2743 362.899C40.3734 362.987 40.4626 363.092 40.5418 363.215L42.5515 366.318Z" fill="#038C73"/>
<path d="M30.6586 361.924H33.6196V365.486C33.1796 365.807 32.7099 366.043 32.2105 366.193C31.715 366.34 31.1898 366.413 30.6348 366.413C29.9253 366.413 29.2832 366.304 28.7084 366.086C28.1336 365.864 27.6421 365.557 27.2338 365.165C26.8256 364.772 26.5104 364.306 26.2885 363.767C26.0665 363.228 25.9555 362.64 25.9555 362.002C25.9555 361.355 26.0605 360.763 26.2706 360.224C26.4847 359.685 26.7879 359.221 27.1803 358.832C27.5728 358.444 28.0464 358.141 28.6014 357.923C29.1603 357.705 29.7846 357.596 30.4743 357.596C30.831 357.596 31.164 357.625 31.4732 357.685C31.7824 357.74 32.0678 357.82 32.3294 357.923C32.591 358.022 32.8308 358.141 33.0488 358.279C33.2668 358.418 33.465 358.571 33.6434 358.737L33.1261 359.534C33.0468 359.661 32.9438 359.738 32.8169 359.766C32.6901 359.794 32.5513 359.762 32.4007 359.671C32.258 359.584 32.1173 359.506 31.9786 359.439C31.8438 359.368 31.6991 359.306 31.5445 359.255C31.3899 359.203 31.2215 359.163 31.0391 359.136C30.8568 359.108 30.6467 359.094 30.4089 359.094C30.0085 359.094 29.6458 359.163 29.3208 359.302C28.9958 359.441 28.7183 359.637 28.4884 359.891C28.2625 360.144 28.0881 360.45 27.9652 360.806C27.8423 361.163 27.7809 361.562 27.7809 362.002C27.7809 362.477 27.8482 362.903 27.983 363.28C28.1178 363.652 28.3081 363.968 28.5538 364.225C28.7996 364.483 29.0929 364.679 29.4338 364.814C29.7786 364.949 30.1611 365.016 30.5813 365.016C30.8667 365.016 31.1204 364.988 31.3424 364.933C31.5683 364.873 31.7883 364.794 32.0024 364.695V363.244H31.0272C30.9123 363.244 30.8211 363.214 30.7537 363.155C30.6903 363.092 30.6586 363.012 30.6586 362.917V361.924Z" fill="#038C73"/>
<path d="M24.5637 362.002C24.5637 362.632 24.4567 363.216 24.2426 363.756C24.0326 364.295 23.7333 364.76 23.3448 365.153C22.9603 365.545 22.4966 365.854 21.9535 366.08C21.4105 366.302 20.808 366.413 20.146 366.413C19.484 366.413 18.8815 366.302 18.3385 366.08C17.7954 365.854 17.3297 365.545 16.9412 365.153C16.5528 364.76 16.2515 364.295 16.0375 363.756C15.8274 363.216 15.7224 362.632 15.7224 362.002C15.7224 361.371 15.8274 360.789 16.0375 360.253C16.2515 359.714 16.5528 359.249 16.9412 358.856C17.3297 358.464 17.7954 358.157 18.3385 357.935C18.8815 357.709 19.484 357.596 20.146 357.596C20.808 357.596 21.4105 357.709 21.9535 357.935C22.4966 358.157 22.9603 358.466 23.3448 358.862C23.7333 359.255 24.0326 359.72 24.2426 360.259C24.4567 360.795 24.5637 361.375 24.5637 362.002ZM22.7384 362.002C22.7384 361.55 22.6789 361.145 22.56 360.789C22.4411 360.428 22.2686 360.123 22.0427 359.873C21.8207 359.619 21.5492 359.427 21.2281 359.296C20.911 359.161 20.5503 359.094 20.146 359.094C19.7417 359.094 19.379 359.161 19.0579 359.296C18.7369 359.427 18.4634 359.619 18.2374 359.873C18.0154 360.123 17.845 360.428 17.7261 360.789C17.6072 361.145 17.5477 361.55 17.5477 362.002C17.5477 362.457 17.6072 362.866 17.7261 363.226C17.845 363.583 18.0154 363.886 18.2374 364.136C18.4634 364.386 18.7369 364.578 19.0579 364.713C19.379 364.844 19.7417 364.909 20.146 364.909C20.5503 364.909 20.911 364.844 21.2281 364.713C21.5492 364.578 21.8207 364.386 22.0427 364.136C22.2686 363.886 22.4411 363.583 22.56 363.226C22.6789 362.866 22.7384 362.457 22.7384 362.002Z" fill="#038C73"/>
<path d="M10.7493 361.776C11.0387 361.776 11.2884 361.74 11.4985 361.669C11.7086 361.593 11.881 361.492 12.0158 361.365C12.1505 361.235 12.2496 361.082 12.313 360.908C12.3765 360.733 12.4082 360.543 12.4082 360.337C12.4082 359.929 12.2714 359.611 11.9979 359.385C11.7284 359.16 11.3161 359.047 10.7612 359.047H9.83366V361.776H10.7493ZM14.9292 366.318H13.3179C13.0166 366.318 12.7986 366.203 12.6638 365.973L11.0228 363.328C10.9554 363.224 10.8801 363.149 10.7969 363.102C10.7176 363.054 10.5987 363.03 10.4401 363.03H9.83366V366.318H8.04993V357.691H10.7612C11.3637 357.691 11.879 357.754 12.3071 357.881C12.7352 358.004 13.086 358.176 13.3595 358.398C13.633 358.62 13.8332 358.886 13.96 359.195C14.0869 359.5 14.1503 359.837 14.1503 360.206C14.1503 360.491 14.1087 360.763 14.0254 361.021C13.9461 361.274 13.8292 361.506 13.6746 361.716C13.52 361.926 13.3298 362.113 13.1038 362.275C12.8779 362.438 12.6202 362.568 12.3309 362.668C12.4458 362.731 12.5529 362.808 12.652 362.899C12.751 362.987 12.8402 363.092 12.9195 363.215L14.9292 366.318Z" fill="#038C73"/>
<path d="M2.91343 361.984C3.47233 361.984 3.88061 361.849 4.13826 361.579C4.39987 361.31 4.53068 360.941 4.53068 360.474C4.53068 360.259 4.49698 360.065 4.4296 359.891C4.36618 359.712 4.26708 359.562 4.13231 359.439C4.0015 359.312 3.83502 359.215 3.63287 359.148C3.43071 359.08 3.1909 359.047 2.91343 359.047H1.78373V361.984H2.91343ZM2.91343 357.691C3.50404 357.691 4.0134 357.76 4.44149 357.899C4.87355 358.038 5.22831 358.232 5.50578 358.482C5.78325 358.727 5.98739 359.021 6.1182 359.362C6.25297 359.703 6.32035 360.073 6.32035 360.474C6.32035 360.898 6.25099 361.286 6.11225 361.639C5.97352 361.992 5.76343 362.295 5.482 362.549C5.20057 362.802 4.8458 363 4.41771 363.143C3.98961 363.282 3.48819 363.351 2.91343 363.351H1.78373V366.318H0V357.691H2.91343Z" fill="#038C73"/>
<path d="M308.003 461.271C307.948 461.363 307.89 461.43 307.831 461.474C307.775 461.513 307.702 461.533 307.611 461.533C307.524 461.533 307.429 461.503 307.325 461.444C307.226 461.381 307.109 461.313 306.975 461.242C306.84 461.17 306.685 461.105 306.511 461.046C306.336 460.982 306.132 460.95 305.898 460.95C305.486 460.95 305.177 461.044 304.971 461.23C304.765 461.412 304.662 461.652 304.662 461.949C304.662 462.14 304.717 462.298 304.828 462.425C304.943 462.548 305.092 462.655 305.274 462.746C305.46 462.837 305.671 462.918 305.904 462.99C306.138 463.061 306.378 463.14 306.624 463.228C306.87 463.311 307.109 463.41 307.343 463.525C307.577 463.64 307.785 463.785 307.968 463.959C308.154 464.133 308.303 464.347 308.414 464.601C308.529 464.851 308.586 465.156 308.586 465.517C308.586 465.909 308.517 466.278 308.378 466.623C308.243 466.964 308.047 467.263 307.789 467.52C307.532 467.774 307.213 467.974 306.832 468.121C306.455 468.268 306.027 468.341 305.548 468.341C305.274 468.341 305.001 468.313 304.727 468.258C304.458 468.202 304.196 468.125 303.942 468.026C303.693 467.927 303.457 467.808 303.235 467.669C303.013 467.53 302.819 467.376 302.652 467.205L303.175 466.361C303.219 466.298 303.276 466.246 303.348 466.206C303.419 466.163 303.494 466.141 303.574 466.141C303.681 466.141 303.794 466.181 303.913 466.26C304.032 466.339 304.168 466.426 304.323 466.522C304.477 466.617 304.656 466.704 304.858 466.783C305.064 466.863 305.31 466.902 305.595 466.902C306.011 466.902 306.333 466.807 306.558 466.617C306.788 466.426 306.903 466.143 306.903 465.766C306.903 465.548 306.846 465.372 306.731 465.237C306.62 465.103 306.473 464.99 306.291 464.898C306.109 464.807 305.9 464.73 305.667 464.667C305.433 464.599 305.193 464.526 304.947 464.447C304.701 464.367 304.462 464.272 304.228 464.161C303.994 464.05 303.786 463.903 303.603 463.721C303.421 463.539 303.272 463.313 303.157 463.043C303.047 462.774 302.991 462.439 302.991 462.038C302.991 461.717 303.054 461.406 303.181 461.105C303.308 460.804 303.494 460.536 303.74 460.302C303.986 460.068 304.287 459.88 304.644 459.737C305.005 459.595 305.417 459.523 305.881 459.523C306.4 459.523 306.88 459.605 307.32 459.767C307.763 459.926 308.138 460.148 308.443 460.433L308.003 461.271Z" fill="#038C73"/>
<path d="M300.929 459.618V468.245H300.007C299.868 468.245 299.751 468.224 299.656 468.18C299.561 468.133 299.468 468.053 299.377 467.942L295.078 462.472C295.09 462.611 295.098 462.748 295.102 462.882C295.11 463.017 295.114 463.142 295.114 463.257V468.245H293.538V459.618H294.477C294.553 459.618 294.616 459.622 294.668 459.63C294.723 459.634 294.773 459.648 294.816 459.672C294.86 459.691 294.902 459.719 294.941 459.755C294.981 459.791 295.024 459.838 295.072 459.898L299.4 465.392C299.385 465.241 299.373 465.096 299.365 464.957C299.357 464.815 299.353 464.68 299.353 464.553V459.618H300.929Z" fill="#038C73"/>
<path d="M291.641 463.929C291.641 464.56 291.534 465.144 291.32 465.683C291.11 466.222 290.81 466.688 290.422 467.081C290.037 467.473 289.574 467.782 289.03 468.008C288.487 468.23 287.885 468.341 287.223 468.341C286.561 468.341 285.959 468.23 285.415 468.008C284.872 467.782 284.407 467.473 284.018 467.081C283.63 466.688 283.328 466.222 283.114 465.683C282.904 465.144 282.799 464.56 282.799 463.929C282.799 463.299 282.904 462.716 283.114 462.181C283.328 461.642 283.63 461.176 284.018 460.784C284.407 460.392 284.872 460.084 285.415 459.862C285.959 459.636 286.561 459.523 287.223 459.523C287.885 459.523 288.487 459.636 289.03 459.862C289.574 460.084 290.037 460.394 290.422 460.79C290.81 461.182 291.11 461.648 291.32 462.187C291.534 462.722 291.641 463.303 291.641 463.929ZM289.815 463.929C289.815 463.477 289.756 463.073 289.637 462.716C289.518 462.356 289.346 462.05 289.12 461.801C288.898 461.547 288.626 461.355 288.305 461.224C287.988 461.089 287.627 461.022 287.223 461.022C286.819 461.022 286.456 461.089 286.135 461.224C285.814 461.355 285.54 461.547 285.314 461.801C285.092 462.05 284.922 462.356 284.803 462.716C284.684 463.073 284.625 463.477 284.625 463.929C284.625 464.385 284.684 464.793 284.803 465.154C284.922 465.511 285.092 465.814 285.314 466.064C285.54 466.314 285.814 466.506 286.135 466.641C286.456 466.771 286.819 466.837 287.223 466.837C287.627 466.837 287.988 466.771 288.305 466.641C288.626 466.506 288.898 466.314 289.12 466.064C289.346 465.814 289.518 465.511 289.637 465.154C289.756 464.793 289.815 464.385 289.815 463.929Z" fill="#038C73"/>
<path d="M280.906 468.245H279.11V459.618H280.906V468.245Z" fill="#038C73"/>
<path d="M277.445 461.057H274.924V468.245H273.134V461.057H270.613V459.618H277.445V461.057Z" fill="#038C73"/>
<path d="M267.797 464.969L266.863 462.329C266.808 462.191 266.748 462.028 266.685 461.842C266.625 461.656 266.568 461.453 266.513 461.235C266.457 461.457 266.398 461.664 266.334 461.854C266.275 462.04 266.217 462.203 266.162 462.341L265.234 464.969H267.797ZM270.793 468.245H269.408C269.254 468.245 269.127 468.21 269.028 468.138C268.932 468.063 268.861 467.968 268.814 467.853L268.231 466.206H264.794L264.212 467.853C264.172 467.952 264.103 468.043 264.003 468.127C263.904 468.206 263.779 468.245 263.629 468.245H262.232L265.603 459.618H267.428L270.793 468.245Z" fill="#038C73"/>
<path d="M261.554 466.795V468.245H256.435V459.618H258.219V466.795H261.554Z" fill="#038C73"/>
<path d="M250.808 461.015V463.233H253.685V464.583H250.808V466.848H254.506V468.245H249.012V459.618H254.506V461.015H250.808Z" fill="#038C73"/>
<path d="M243.394 463.703C243.684 463.703 243.933 463.667 244.143 463.596C244.353 463.521 244.526 463.419 244.661 463.293C244.795 463.162 244.895 463.009 244.958 462.835C245.021 462.66 245.053 462.47 245.053 462.264C245.053 461.856 244.916 461.539 244.643 461.313C244.373 461.087 243.961 460.974 243.406 460.974H242.479V463.703H243.394ZM247.574 468.245H245.963C245.662 468.245 245.444 468.131 245.309 467.901L243.668 465.255C243.6 465.152 243.525 465.076 243.442 465.029C243.362 464.981 243.244 464.957 243.085 464.957H242.479V468.245H240.695V459.618H243.406C244.009 459.618 244.524 459.682 244.952 459.808C245.38 459.931 245.731 460.104 246.004 460.326C246.278 460.548 246.478 460.813 246.605 461.122C246.732 461.428 246.795 461.765 246.795 462.133C246.795 462.419 246.754 462.69 246.67 462.948C246.591 463.201 246.474 463.433 246.32 463.643C246.165 463.854 245.975 464.04 245.749 464.202C245.523 464.365 245.265 464.496 244.976 464.595C245.091 464.658 245.198 464.735 245.297 464.827C245.396 464.914 245.485 465.019 245.564 465.142L247.574 468.245Z" fill="#038C73"/>
<path d="M233.392 467.384C233.392 467.253 233.416 467.13 233.464 467.015C233.515 466.896 233.585 466.795 233.672 466.712C233.759 466.625 233.86 466.557 233.975 466.51C234.094 466.458 234.223 466.433 234.361 466.433C234.496 466.433 234.623 466.458 234.742 466.51C234.861 466.557 234.964 466.625 235.051 466.712C235.138 466.795 235.206 466.896 235.253 467.015C235.305 467.13 235.331 467.253 235.331 467.384C235.331 467.519 235.305 467.644 235.253 467.759C235.206 467.873 235.138 467.975 235.051 468.062C234.964 468.145 234.861 468.21 234.742 468.258C234.623 468.306 234.496 468.329 234.361 468.329C234.223 468.329 234.094 468.306 233.975 468.258C233.86 468.21 233.759 468.145 233.672 468.062C233.585 467.975 233.515 467.873 233.464 467.759C233.416 467.644 233.392 467.519 233.392 467.384Z" fill="#038C73"/>
<path d="M232.952 461.057H230.431V468.245H228.641V461.057H226.12V459.618H232.952V461.057Z" fill="#038C73"/>
<path d="M225.452 459.618L221.98 468.245H220.363L216.89 459.618H218.329C218.484 459.618 218.609 459.656 218.704 459.731C218.803 459.802 218.876 459.896 218.924 460.011L220.791 464.981C220.862 465.168 220.932 465.372 220.999 465.594C221.07 465.812 221.136 466.042 221.195 466.283C221.247 466.042 221.302 465.812 221.362 465.594C221.425 465.372 221.492 465.168 221.564 464.981L223.419 460.011C223.458 459.911 223.528 459.822 223.627 459.743C223.73 459.66 223.857 459.618 224.007 459.618H225.452Z" fill="#038C73"/>
<path d="M216.306 463.929C216.306 464.56 216.199 465.144 215.985 465.683C215.775 466.222 215.475 466.688 215.087 467.081C214.702 467.473 214.239 467.782 213.696 468.008C213.153 468.23 212.55 468.341 211.888 468.341C211.226 468.341 210.624 468.23 210.081 468.008C209.538 467.782 209.072 467.473 208.683 467.081C208.295 466.688 207.994 466.222 207.78 465.683C207.57 465.144 207.464 464.56 207.464 463.929C207.464 463.299 207.57 462.716 207.78 462.181C207.994 461.642 208.295 461.176 208.683 460.784C209.072 460.392 209.538 460.084 210.081 459.862C210.624 459.636 211.226 459.523 211.888 459.523C212.55 459.523 213.153 459.636 213.696 459.862C214.239 460.084 214.702 460.394 215.087 460.79C215.475 461.182 215.775 461.648 215.985 462.187C216.199 462.722 216.306 463.303 216.306 463.929ZM214.48 463.929C214.48 463.477 214.421 463.073 214.302 462.716C214.183 462.356 214.011 462.05 213.785 461.801C213.563 461.547 213.291 461.355 212.97 461.224C212.653 461.089 212.292 461.022 211.888 461.022C211.484 461.022 211.121 461.089 210.8 461.224C210.479 461.355 210.205 461.547 209.98 461.801C209.758 462.05 209.587 462.356 209.468 462.716C209.349 463.073 209.29 463.477 209.29 463.929C209.29 464.385 209.349 464.793 209.468 465.154C209.587 465.511 209.758 465.814 209.98 466.064C210.205 466.314 210.479 466.506 210.8 466.641C211.121 466.771 211.484 466.837 211.888 466.837C212.292 466.837 212.653 466.771 212.97 466.641C213.291 466.506 213.563 466.314 213.785 466.064C214.011 465.814 214.183 465.511 214.302 465.154C214.421 464.793 214.48 464.385 214.48 463.929Z" fill="#038C73"/>
<path d="M202.956 463.852H205.917V467.413C205.477 467.735 205.008 467.97 204.508 468.121C204.013 468.268 203.487 468.341 202.932 468.341C202.223 468.341 201.581 468.232 201.006 468.014C200.431 467.792 199.94 467.485 199.532 467.092C199.123 466.7 198.808 466.234 198.586 465.695C198.364 465.156 198.253 464.567 198.253 463.929C198.253 463.283 198.358 462.691 198.568 462.151C198.782 461.612 199.086 461.149 199.478 460.76C199.87 460.372 200.344 460.068 200.899 459.85C201.458 459.632 202.082 459.523 202.772 459.523C203.129 459.523 203.462 459.553 203.771 459.613C204.08 459.668 204.365 459.747 204.627 459.85C204.889 459.95 205.128 460.068 205.346 460.207C205.564 460.346 205.763 460.499 205.941 460.665L205.424 461.462C205.344 461.589 205.241 461.666 205.115 461.694C204.988 461.721 204.849 461.69 204.698 461.599C204.556 461.511 204.415 461.434 204.276 461.367C204.141 461.295 203.997 461.234 203.842 461.182C203.688 461.131 203.519 461.091 203.337 461.063C203.154 461.036 202.944 461.022 202.707 461.022C202.306 461.022 201.944 461.091 201.618 461.23C201.293 461.369 201.016 461.565 200.786 461.819C200.56 462.072 200.386 462.377 200.263 462.734C200.14 463.091 200.079 463.489 200.079 463.929C200.079 464.405 200.146 464.831 200.281 465.208C200.415 465.58 200.606 465.895 200.851 466.153C201.097 466.411 201.391 466.607 201.731 466.742C202.076 466.876 202.459 466.944 202.879 466.944C203.164 466.944 203.418 466.916 203.64 466.861C203.866 466.801 204.086 466.722 204.3 466.623V465.172H203.325C203.21 465.172 203.119 465.142 203.051 465.083C202.988 465.019 202.956 464.94 202.956 464.845V463.852Z" fill="#038C73"/>
<path d="M81.8492 38.366L229.313 49.0698L229.252 49.9175L83.7529 39.3565L198.501 99.0431L231.927 52.0227L266.534 134.431L293.609 148.514L275.293 155.287L286.458 181.874L296.402 148.328L297.229 148.386L310.743 239.702L318.183 257.415L283.733 270.227L274.298 355.323L274.248 355.767L265.451 354.331L269.504 358.373L269.778 358.646L215.476 424.339L212.781 433.431L211.195 429.518L208.461 432.826L129.755 331.325L174.332 338.6L164.579 314.545L126.528 328.699L122.259 216.841L122.239 216.303L124.966 216.846L123.989 214.436L123.981 214.417L123.976 214.399L123.121 211.565L116.868 213.878L121.749 207.01L70.71 37.5589L71.3255 37.6029L79.7116 38.2109L71.0991 33.7317L71.4906 32.9785L81.8492 38.366ZM208.482 431.466L210.833 428.623L174.705 339.521L131.75 332.51L208.482 431.466ZM211.809 428.775L212.656 430.862L214.095 426.011L211.809 428.775ZM211.447 427.88L214.711 423.931L236.73 349.643L175.686 339.681L211.447 427.88ZM216.092 422.26L268.63 358.701L264.011 354.096L237.576 349.782L216.092 422.26ZM258.358 279.665L242.894 331.84L264.42 353.303L273.502 354.785L282.842 270.559L258.358 279.665ZM237.819 348.961L262.98 353.067L242.619 332.766L237.819 348.961ZM165.375 314.249L175.313 338.76L236.973 348.824L241.935 332.084L208.106 298.356L165.375 314.249ZM208.983 298.029L242.209 331.158L257.362 280.036L208.983 298.029ZM127.333 327.492L164.26 313.758L125.348 217.788L123.128 217.346L127.333 327.492ZM165.055 313.462L207.445 297.696L127.789 218.274L126.344 217.986L165.055 313.462ZM208.321 297.37L257.664 279.017L267.428 246.077L129.294 218.573L208.321 297.37ZM258.66 278.646L282.946 269.613L285.165 249.608L268.265 246.243L258.66 278.646ZM313.032 255.157L286.001 249.774L283.838 269.282L317.056 256.927L311.245 243.088L313.032 255.157ZM286.095 248.927L312.015 254.089L309.92 239.934L291.861 196.931L286.095 248.927ZM268.507 245.425L285.259 248.761L291.185 195.32L286.597 184.397L268.507 245.425ZM123.919 211.27L124.757 214.05L128.208 217.492L267.67 245.259L286.077 183.16L274.496 155.582L123.919 211.27ZM292.053 195.196L309.418 236.547L296.87 151.755L292.053 195.196ZM125.961 217.044L126.704 217.192L125.559 216.05L125.961 217.044ZM119.155 212.126L122.877 210.75L122.059 208.04L119.155 212.126ZM122.682 207.164L123.674 210.455L274.167 154.798L265.87 135.042L198.765 100.137L122.682 207.164ZM122.372 206.133L198.004 99.7415L81.6153 39.2013L71.8788 38.4946L122.372 206.133ZM286.977 183.111L291.376 193.586L295.861 153.14L286.977 183.111ZM274.964 154.504L291.516 148.382L267.048 135.655L274.964 154.504ZM199.262 99.4388L265.356 133.818L231.734 53.7589L199.262 99.4388Z" fill="#038C73"/>
<path d="M272.111 349.528L271.393 349.981L71.785 33.5813L72.5034 33.1284L272.111 349.528Z" fill="#038C73"/>
<path d="M272.598 350.126L271.756 350.233L233.958 53.3696L234.8 53.2617L272.598 350.126Z" fill="#038C73"/>
<path d="M76.8186 31.8702C76.8186 35.741 73.6806 38.879 69.8097 38.879C65.9389 38.879 62.8009 35.741 62.8009 31.8702C62.8009 27.9993 65.9389 24.8613 69.8097 24.8613C73.6806 24.8613 76.8186 27.9993 76.8186 31.8702Z" fill="#FFB300"/>
<path d="M239.903 53.105C239.903 56.9759 236.765 60.1138 232.894 60.1138C229.023 60.1138 225.885 56.9759 225.885 53.105C225.885 49.2341 229.023 46.0962 232.894 46.0962C236.765 46.0962 239.903 49.2341 239.903 53.105Z" fill="#FFB300"/>
<path d="M299.36 148.237C299.36 152.108 296.222 155.246 292.351 155.246C288.48 155.246 285.343 152.108 285.343 148.237C285.343 144.366 288.48 141.229 292.351 141.229C296.222 141.229 299.36 144.366 299.36 148.237Z" fill="#FFB300"/>
<path d="M134.577 328.309C134.577 332.18 131.44 335.318 127.569 335.318C123.698 335.318 120.56 332.18 120.56 328.309C120.56 324.438 123.698 321.3 127.569 321.3C131.44 321.3 134.577 324.438 134.577 328.309Z" fill="#FFB300"/>
<path d="M323.143 255.261C323.143 259.132 320.005 262.27 316.135 262.27C312.264 262.27 309.126 259.132 309.126 255.261C309.126 251.39 312.264 248.252 316.135 248.252C320.005 248.252 323.143 251.39 323.143 255.261Z" fill="#FFB300"/>
<path d="M279.824 352.941C279.824 356.812 276.686 359.95 272.815 359.95C268.944 359.95 265.807 356.812 265.807 352.941C265.807 349.071 268.944 345.933 272.815 345.933C276.686 345.933 279.824 349.071 279.824 352.941Z" fill="#FFB300"/>
<path d="M218.668 434.483C218.668 438.354 215.53 441.492 211.659 441.492C207.788 441.492 204.65 438.354 204.65 434.483C204.65 430.613 207.788 427.475 211.659 427.475C215.53 427.475 218.668 430.613 218.668 434.483Z" fill="#FFB300"/>
<path d="M126.933 212.791C126.933 216.662 123.795 219.8 119.924 219.8C116.053 219.8 112.915 216.662 112.915 212.791C112.915 208.92 116.053 205.782 119.924 205.782C123.795 205.782 126.933 208.92 126.933 212.791Z" fill="#FFB300"/>
</svg>
