<svg width="371" height="229" viewBox="0 0 371 229" fill="none" xmlns="http://www.w3.org/2000/svg">
<circle cx="265.5" cy="169.5" r="12.5" fill="#EF3A5D"/>
<circle cx="92.5" cy="169.5" r="12.5" fill="#EF3A5D"/>
<circle cx="177.5" cy="39.5" r="12.5" fill="#EF3A5D"/>
<path d="M295.92 176H293.2V164.344H295.92V176ZM300.309 164.344C300.426 164.344 300.525 164.349 300.605 164.36C300.685 164.371 300.757 164.392 300.821 164.424C300.885 164.451 300.946 164.491 301.005 164.544C301.064 164.597 301.13 164.669 301.205 164.76L306.741 171.76C306.72 171.536 306.704 171.32 306.693 171.112C306.682 170.899 306.677 170.699 306.677 170.512V164.344H309.061V176H307.653C307.445 176 307.269 175.968 307.125 175.904C306.981 175.84 306.842 175.723 306.709 175.552L301.213 168.608C301.229 168.811 301.242 169.011 301.253 169.208C301.264 169.4 301.269 169.581 301.269 169.752V176H298.885V164.344H300.309ZM318.275 166.712C318.195 166.84 318.109 166.936 318.019 167C317.933 167.064 317.821 167.096 317.683 167.096C317.56 167.096 317.427 167.059 317.283 166.984C317.144 166.904 316.984 166.816 316.803 166.72C316.627 166.624 316.424 166.539 316.195 166.464C315.965 166.384 315.704 166.344 315.411 166.344C314.904 166.344 314.525 166.453 314.275 166.672C314.029 166.885 313.907 167.176 313.907 167.544C313.907 167.779 313.981 167.973 314.131 168.128C314.28 168.283 314.475 168.416 314.715 168.528C314.96 168.64 315.237 168.744 315.547 168.84C315.861 168.931 316.181 169.035 316.507 169.152C316.832 169.264 317.149 169.397 317.459 169.552C317.773 169.707 318.051 169.904 318.291 170.144C318.536 170.384 318.733 170.677 318.883 171.024C319.032 171.365 319.107 171.779 319.107 172.264C319.107 172.803 319.013 173.307 318.827 173.776C318.64 174.245 318.368 174.656 318.011 175.008C317.659 175.355 317.221 175.629 316.699 175.832C316.181 176.029 315.592 176.128 314.931 176.128C314.568 176.128 314.197 176.091 313.819 176.016C313.445 175.941 313.083 175.837 312.731 175.704C312.379 175.565 312.048 175.403 311.739 175.216C311.429 175.029 311.16 174.821 310.931 174.592L311.731 173.328C311.789 173.232 311.872 173.155 311.979 173.096C312.085 173.037 312.2 173.008 312.323 173.008C312.483 173.008 312.643 173.059 312.803 173.16C312.968 173.261 313.152 173.373 313.355 173.496C313.563 173.619 313.8 173.731 314.067 173.832C314.333 173.933 314.648 173.984 315.011 173.984C315.501 173.984 315.883 173.877 316.155 173.664C316.427 173.445 316.563 173.101 316.563 172.632C316.563 172.36 316.488 172.139 316.339 171.968C316.189 171.797 315.992 171.656 315.747 171.544C315.507 171.432 315.232 171.333 314.923 171.248C314.613 171.163 314.296 171.069 313.971 170.968C313.645 170.861 313.328 170.733 313.019 170.584C312.709 170.429 312.432 170.229 312.187 169.984C311.947 169.733 311.752 169.424 311.603 169.056C311.453 168.683 311.379 168.224 311.379 167.68C311.379 167.243 311.467 166.816 311.643 166.4C311.819 165.984 312.077 165.613 312.419 165.288C312.76 164.963 313.179 164.704 313.675 164.512C314.171 164.315 314.739 164.216 315.379 164.216C315.736 164.216 316.083 164.245 316.419 164.304C316.76 164.357 317.083 164.44 317.387 164.552C317.691 164.659 317.973 164.789 318.235 164.944C318.501 165.093 318.739 165.264 318.947 165.456L318.275 166.712ZM324.211 176H321.491V164.344H324.211V176ZM332.664 174.048C333.037 174.048 333.368 174.016 333.656 173.952C333.944 173.888 334.216 173.803 334.472 173.696V171.928H333.32C333.149 171.928 333.016 171.883 332.92 171.792C332.824 171.701 332.776 171.587 332.776 171.448V169.96H336.92V174.88C336.621 175.099 336.309 175.288 335.984 175.448C335.664 175.603 335.32 175.731 334.952 175.832C334.589 175.933 334.2 176.008 333.784 176.056C333.373 176.104 332.93 176.128 332.456 176.128C331.602 176.128 330.813 175.979 330.088 175.68C329.362 175.376 328.733 174.96 328.2 174.432C327.672 173.899 327.256 173.269 326.952 172.544C326.653 171.813 326.504 171.021 326.504 170.168C326.504 169.299 326.648 168.501 326.936 167.776C327.224 167.045 327.634 166.416 328.168 165.888C328.706 165.36 329.354 164.949 330.112 164.656C330.874 164.363 331.725 164.216 332.664 164.216C333.149 164.216 333.605 164.256 334.032 164.336C334.458 164.416 334.85 164.525 335.208 164.664C335.57 164.803 335.901 164.968 336.2 165.16C336.498 165.352 336.765 165.56 337 165.784L336.216 166.976C336.141 167.088 336.05 167.176 335.944 167.24C335.842 167.304 335.73 167.336 335.608 167.336C335.448 167.336 335.282 167.283 335.112 167.176C334.898 167.048 334.696 166.939 334.504 166.848C334.317 166.752 334.125 166.675 333.928 166.616C333.73 166.557 333.522 166.515 333.304 166.488C333.085 166.461 332.84 166.448 332.568 166.448C332.061 166.448 331.605 166.539 331.2 166.72C330.794 166.896 330.448 167.147 330.16 167.472C329.877 167.797 329.658 168.189 329.504 168.648C329.349 169.101 329.272 169.608 329.272 170.168C329.272 170.787 329.357 171.336 329.528 171.816C329.698 172.296 329.933 172.701 330.232 173.032C330.536 173.363 330.893 173.616 331.304 173.792C331.72 173.963 332.173 174.048 332.664 174.048ZM349.542 176H346.822V171.072H342.086V176H339.366V164.344H342.086V169.216H346.822V164.344H349.542V176ZM360.724 164.344V166.488H357.444V176H354.74V166.488H351.46V164.344H360.724ZM369.134 166.712C369.054 166.84 368.969 166.936 368.878 167C368.793 167.064 368.681 167.096 368.542 167.096C368.419 167.096 368.286 167.059 368.142 166.984C368.003 166.904 367.843 166.816 367.662 166.72C367.486 166.624 367.283 166.539 367.054 166.464C366.825 166.384 366.563 166.344 366.27 166.344C365.763 166.344 365.385 166.453 365.134 166.672C364.889 166.885 364.766 167.176 364.766 167.544C364.766 167.779 364.841 167.973 364.99 168.128C365.139 168.283 365.334 168.416 365.574 168.528C365.819 168.64 366.097 168.744 366.406 168.84C366.721 168.931 367.041 169.035 367.366 169.152C367.691 169.264 368.009 169.397 368.318 169.552C368.633 169.707 368.91 169.904 369.15 170.144C369.395 170.384 369.593 170.677 369.742 171.024C369.891 171.365 369.966 171.779 369.966 172.264C369.966 172.803 369.873 173.307 369.686 173.776C369.499 174.245 369.227 174.656 368.87 175.008C368.518 175.355 368.081 175.629 367.558 175.832C367.041 176.029 366.451 176.128 365.79 176.128C365.427 176.128 365.057 176.091 364.678 176.016C364.305 175.941 363.942 175.837 363.59 175.704C363.238 175.565 362.907 175.403 362.598 175.216C362.289 175.029 362.019 174.821 361.79 174.592L362.59 173.328C362.649 173.232 362.731 173.155 362.838 173.096C362.945 173.037 363.059 173.008 363.182 173.008C363.342 173.008 363.502 173.059 363.662 173.16C363.827 173.261 364.011 173.373 364.214 173.496C364.422 173.619 364.659 173.731 364.926 173.832C365.193 173.933 365.507 173.984 365.87 173.984C366.361 173.984 366.742 173.877 367.014 173.664C367.286 173.445 367.422 173.101 367.422 172.632C367.422 172.36 367.347 172.139 367.198 171.968C367.049 171.797 366.851 171.656 366.606 171.544C366.366 171.432 366.091 171.333 365.782 171.248C365.473 171.163 365.155 171.069 364.83 170.968C364.505 170.861 364.187 170.733 363.878 170.584C363.569 170.429 363.291 170.229 363.046 169.984C362.806 169.733 362.611 169.424 362.462 169.056C362.313 168.683 362.238 168.224 362.238 167.68C362.238 167.243 362.326 166.816 362.502 166.4C362.678 165.984 362.937 165.613 363.278 165.288C363.619 164.963 364.038 164.704 364.534 164.512C365.03 164.315 365.598 164.216 366.238 164.216C366.595 164.216 366.942 164.245 367.278 164.304C367.619 164.357 367.942 164.44 368.246 164.552C368.55 164.659 368.833 164.789 369.094 164.944C369.361 165.093 369.598 165.264 369.806 165.456L369.134 166.712Z" fill="#EF3A5D"/>
<path d="M11.808 176H9.712C9.47733 176 9.28267 175.947 9.128 175.84C8.97867 175.728 8.87467 175.587 8.816 175.416L8.128 173.384H3.696L3.008 175.416C2.95467 175.565 2.85067 175.701 2.696 175.824C2.54133 175.941 2.352 176 2.128 176H0.016L4.528 164.344H7.296L11.808 176ZM4.32 171.544H7.504L6.432 168.352C6.36267 168.149 6.28 167.912 6.184 167.64C6.09333 167.363 6.00267 167.064 5.912 166.744C5.82667 167.069 5.73867 167.371 5.648 167.648C5.55733 167.925 5.472 168.165 5.392 168.368L4.32 171.544ZM20.9045 172.984C20.9685 172.984 21.0325 172.997 21.0965 173.024C21.1605 173.045 21.2218 173.085 21.2805 173.144L22.3525 174.272C21.8832 174.885 21.2938 175.349 20.5845 175.664C19.8805 175.973 19.0458 176.128 18.0805 176.128C17.1952 176.128 16.4005 175.979 15.6965 175.68C14.9978 175.376 14.4032 174.96 13.9125 174.432C13.4272 173.899 13.0538 173.269 12.7925 172.544C12.5312 171.813 12.4005 171.021 12.4005 170.168C12.4005 169.299 12.5498 168.501 12.8485 167.776C13.1472 167.045 13.5632 166.416 14.0965 165.888C14.6352 165.36 15.2778 164.949 16.0245 164.656C16.7712 164.363 17.5952 164.216 18.4965 164.216C18.9338 164.216 19.3445 164.256 19.7285 164.336C20.1178 164.411 20.4805 164.517 20.8165 164.656C21.1525 164.789 21.4618 164.952 21.7445 165.144C22.0272 165.331 22.2778 165.539 22.4965 165.768L21.5845 166.992C21.5258 167.067 21.4565 167.136 21.3765 167.2C21.2965 167.259 21.1845 167.288 21.0405 167.288C20.9445 167.288 20.8538 167.267 20.7685 167.224C20.6832 167.181 20.5925 167.131 20.4965 167.072C20.4005 167.008 20.2938 166.941 20.1765 166.872C20.0645 166.797 19.9285 166.731 19.7685 166.672C19.6138 166.608 19.4298 166.555 19.2165 166.512C19.0085 166.469 18.7632 166.448 18.4805 166.448C17.9898 166.448 17.5418 166.536 17.1365 166.712C16.7312 166.883 16.3818 167.131 16.0885 167.456C15.8005 167.776 15.5738 168.165 15.4085 168.624C15.2485 169.083 15.1685 169.597 15.1685 170.168C15.1685 170.765 15.2485 171.296 15.4085 171.76C15.5738 172.224 15.7952 172.616 16.0725 172.936C16.3552 173.251 16.6832 173.491 17.0565 173.656C17.4298 173.821 17.8298 173.904 18.2565 173.904C18.5018 173.904 18.7258 173.893 18.9285 173.872C19.1312 173.845 19.3178 173.803 19.4885 173.744C19.6645 173.685 19.8298 173.611 19.9845 173.52C20.1445 173.424 20.3045 173.307 20.4645 173.168C20.5285 173.115 20.5978 173.072 20.6725 173.04C20.7472 173.003 20.8245 172.984 20.9045 172.984ZM32.8521 164.344V166.488H29.5721V176H26.8681V166.488H23.5881V164.344H32.8521ZM37.7263 176H35.0063V164.344H37.7263V176ZM52.1953 170.168C52.1953 171.011 52.0486 171.795 51.7553 172.52C51.4673 173.245 51.0593 173.877 50.5313 174.416C50.0033 174.949 49.3659 175.368 48.6193 175.672C47.8779 175.976 47.0539 176.128 46.1473 176.128C45.2406 176.128 44.4139 175.976 43.6673 175.672C42.9206 175.368 42.2806 174.949 41.7473 174.416C41.2193 173.877 40.8086 173.245 40.5153 172.52C40.2273 171.795 40.0833 171.011 40.0833 170.168C40.0833 169.325 40.2273 168.541 40.5153 167.816C40.8086 167.091 41.2193 166.461 41.7473 165.928C42.2806 165.395 42.9206 164.976 43.6673 164.672C44.4139 164.368 45.2406 164.216 46.1473 164.216C47.0539 164.216 47.8779 164.371 48.6193 164.68C49.3659 164.984 50.0033 165.403 50.5313 165.936C51.0593 166.469 51.4673 167.099 51.7553 167.824C52.0486 168.549 52.1953 169.331 52.1953 170.168ZM49.4273 170.168C49.4273 169.592 49.3526 169.075 49.2033 168.616C49.0539 168.152 48.8379 167.76 48.5553 167.44C48.2779 167.12 47.9366 166.875 47.5313 166.704C47.1259 166.533 46.6646 166.448 46.1473 166.448C45.6246 166.448 45.1579 166.533 44.7473 166.704C44.3419 166.875 43.9979 167.12 43.7153 167.44C43.4379 167.76 43.2246 168.152 43.0753 168.616C42.9259 169.075 42.8513 169.592 42.8513 170.168C42.8513 170.749 42.9259 171.272 43.0753 171.736C43.2246 172.195 43.4379 172.584 43.7153 172.904C43.9979 173.224 44.3419 173.469 44.7473 173.64C45.1579 173.805 45.6246 173.888 46.1473 173.888C46.6646 173.888 47.1259 173.805 47.5313 173.64C47.9366 173.469 48.2779 173.224 48.5553 172.904C48.8379 172.584 49.0539 172.195 49.2033 171.736C49.3526 171.272 49.4273 170.749 49.4273 170.168ZM55.7121 164.344C55.8295 164.344 55.9281 164.349 56.0081 164.36C56.0881 164.371 56.1601 164.392 56.2241 164.424C56.2881 164.451 56.3495 164.491 56.4081 164.544C56.4668 164.597 56.5335 164.669 56.6081 164.76L62.1441 171.76C62.1228 171.536 62.1068 171.32 62.0961 171.112C62.0855 170.899 62.0801 170.699 62.0801 170.512V164.344H64.4641V176H63.0561C62.8481 176 62.6721 175.968 62.5281 175.904C62.3841 175.84 62.2455 175.723 62.1121 175.552L56.6161 168.608C56.6321 168.811 56.6455 169.011 56.6561 169.208C56.6668 169.4 56.6721 169.581 56.6721 169.752V176H54.2881V164.344H55.7121Z" fill="#EF3A5D"/>
<path d="M167.536 9.168C167.536 10.0107 167.389 10.7893 167.096 11.504C166.808 12.2133 166.4 12.8293 165.872 13.352C165.344 13.8693 164.707 14.2747 163.96 14.568C163.219 14.856 162.395 15 161.488 15H156.96V3.344H161.488C162.395 3.344 163.219 3.49067 163.96 3.784C164.707 4.07733 165.344 4.48267 165.872 5C166.4 5.51733 166.808 6.13333 167.096 6.848C167.389 7.55733 167.536 8.33067 167.536 9.168ZM164.768 9.168C164.768 8.592 164.693 8.072 164.544 7.608C164.395 7.144 164.179 6.752 163.896 6.432C163.619 6.10667 163.277 5.85867 162.872 5.688C162.467 5.512 162.005 5.424 161.488 5.424H159.68V12.92H161.488C162.005 12.92 162.467 12.8347 162.872 12.664C163.277 12.488 163.619 12.24 163.896 11.92C164.179 11.5947 164.395 11.2 164.544 10.736C164.693 10.272 164.768 9.74933 164.768 9.168ZM179.999 15H177.903C177.668 15 177.473 14.9467 177.319 14.84C177.169 14.728 177.065 14.5867 177.007 14.416L176.319 12.384H171.887L171.199 14.416C171.145 14.5653 171.041 14.7013 170.887 14.824C170.732 14.9413 170.543 15 170.319 15H168.207L172.719 3.344H175.487L179.999 15ZM172.511 10.544H175.695L174.623 7.352C174.553 7.14933 174.471 6.912 174.375 6.64C174.284 6.36267 174.193 6.064 174.103 5.744C174.017 6.06933 173.929 6.37067 173.839 6.648C173.748 6.92533 173.663 7.16533 173.583 7.368L172.511 10.544ZM188.93 3.344V5.488H185.65V15H182.946V5.488H179.666V3.344H188.93ZM200.411 15H198.315C198.08 15 197.886 14.9467 197.731 14.84C197.582 14.728 197.478 14.5867 197.419 14.416L196.731 12.384H192.299L191.611 14.416C191.558 14.5653 191.454 14.7013 191.299 14.824C191.144 14.9413 190.955 15 190.731 15H188.619L193.131 3.344H195.899L200.411 15ZM192.923 10.544H196.107L195.035 7.352C194.966 7.14933 194.883 6.912 194.787 6.64C194.696 6.36267 194.606 6.064 194.515 5.744C194.43 6.06933 194.342 6.37067 194.251 6.648C194.16 6.92533 194.075 7.16533 193.995 7.368L192.923 10.544Z" fill="#EF3A5D"/>
<path d="M84.1233 148.653C84.2078 149.199 84.7187 149.573 85.2645 149.488C85.8103 149.404 86.1842 148.893 86.0997 148.347L85.1115 148.5L84.1233 148.653ZM155.858 43.3475C156.142 42.8735 155.987 42.2595 155.513 41.976L147.789 37.3564C147.315 37.0729 146.701 37.2274 146.418 37.7013C146.134 38.1753 146.289 38.7894 146.763 39.0728L153.628 43.1792L149.522 50.0449C149.239 50.5189 149.393 51.1329 149.867 51.4164C150.341 51.6999 150.955 51.5454 151.239 51.0715L155.858 43.3475ZM85.1115 148.5L86.0997 148.347C85.3758 143.671 85 138.88 85 134H84H83C83 138.983 83.3837 143.876 84.1233 148.653L85.1115 148.5ZM84 134H85C85 90.4892 114.881 53.955 155.244 43.804L155 42.8342L154.756 41.8644C113.526 52.2336 83 89.5507 83 134H84Z" fill="#EF3A5D"/>
<path d="M102.278 188.512C101.732 188.427 101.221 188.802 101.137 189.348L99.7651 198.242C99.6809 198.788 100.055 199.299 100.601 199.383C101.147 199.467 101.657 199.093 101.742 198.547L102.961 190.641L110.868 191.86C111.414 191.945 111.924 191.57 112.009 191.025C112.093 190.479 111.719 189.968 111.173 189.884L102.278 188.512ZM256.813 187.059L257.373 186.23L255.715 185.112L255.155 185.941L255.984 186.5L256.813 187.059ZM178 228V227C147.177 227 119.855 212.006 102.932 188.909L102.125 189.5L101.319 190.091C118.603 213.68 146.512 229 178 229V228ZM255.984 186.5L255.155 185.941C238.446 210.713 210.125 227 178 227V228V229C210.818 229 239.748 212.359 256.813 187.059L255.984 186.5Z" fill="#EF3A5D"/>
<path d="M196.702 40.9011C196.162 40.7893 195.632 41.1371 195.521 41.678C195.409 42.2188 195.757 42.7479 196.298 42.8597L196.5 41.8804L196.702 40.9011ZM270.02 149.097C270.349 149.54 270.976 149.632 271.419 149.303L278.643 143.935C279.086 143.605 279.178 142.979 278.849 142.536C278.52 142.092 277.893 142 277.45 142.33L271.029 147.101L266.257 140.68C265.928 140.236 265.301 140.144 264.858 140.474C264.415 140.803 264.322 141.429 264.652 141.873L270.02 149.097ZM196.5 41.8804L196.298 42.8597C244.193 52.7592 276.867 100.633 269.833 148.354L270.822 148.5L271.812 148.646C278.998 99.8928 245.652 51.0186 196.702 40.9011L196.5 41.8804Z" fill="#EF3A5D"/>
</svg>
